<svg id="Warstwa_1" data-name="Warstwa 1" xmlns="http://www.w3.org/2000/svg" xmlns:xlink="http://www.w3.org/1999/xlink" viewBox="0 0 135.11 100.17"><defs><style>.cls-1{opacity:0.9;fill:url(#Gradient_bez_nazwy_8);}.cls-2{fill:#233a48;}</style><linearGradient id="Gradient_bez_nazwy_8" y1="59.4" x2="81.55" y2="59.4" gradientUnits="userSpaceOnUse"><stop offset="0" stop-color="#446e67" stop-opacity="0.6"/><stop offset="0.19" stop-color="#446e67" stop-opacity="0.7"/><stop offset="0.69" stop-color="#446e67" stop-opacity="0.92"/><stop offset="1" stop-color="#446e67"/></linearGradient></defs><circle class="cls-1" cx="40.77" cy="59.4" r="40.77"/><path class="cls-2" d="M69.9,69.49c.32,0,.2-.21.25-.25C69.59,69.32,69.92,69.55,69.9,69.49Z" transform="translate(-2.03 -1.44)"/><polygon class="cls-2" points="64.27 70.11 64.28 70 63.94 70.47 64.27 70.11"/><path class="cls-2" d="M63.49,73.25c.43.22,1-.59,1.54-.8l.12,0,.07-.39A6.58,6.58,0,0,1,63.49,73.25Z" transform="translate(-2.03 -1.44)"/><path class="cls-2" d="M61.83,72.86c.13.12-.33.19.39,0l-.07,0Z" transform="translate(-2.03 -1.44)"/><path class="cls-2" d="M62.15,72.81c.32-.07-.23-.08,0,0Z" transform="translate(-2.03 -1.44)"/><path class="cls-2" d="M60.67,73.08l.21-.07.2-.1c-.1-.06-.47-.06-.33-.13C60.33,72.88,60.42,73,60.67,73.08Z" transform="translate(-2.03 -1.44)"/><path class="cls-2" d="M60.28,73.37l.22-.07S60.4,73.26,60.28,73.37Z" transform="translate(-2.03 -1.44)"/><path class="cls-2" d="M61,73.16s-.46.14-.46.14.09.18.22,0C60.69,73.36,60.77,73.26,61,73.16Z" transform="translate(-2.03 -1.44)"/><path class="cls-2" d="M61.24,73.18c.25,0,.57.06.15.24C62.22,73.26,62.05,73,61.24,73.18Z" transform="translate(-2.03 -1.44)"/><path class="cls-2" d="M63.5,73.66l.35,0L64,73.5l.1-.13C64,73.51,63.44,73.56,63.5,73.66Z" transform="translate(-2.03 -1.44)"/><path class="cls-2" d="M58.1,72.82c0,.07.11.23.13.33l.32-.06C58.39,73,58.1,73,58.1,72.82Z" transform="translate(-2.03 -1.44)"/><path class="cls-2" d="M58.23,73.15l-.48,0C58.16,73.3,58.24,73.23,58.23,73.15Z" transform="translate(-2.03 -1.44)"/><path class="cls-2" d="M60.22,73.78l.4-.16.38-.17-.46.17-.47.17Z" transform="translate(-2.03 -1.44)"/><path class="cls-2" d="M56.44,72.43l.15-.05.14,0s-.51.12-.51.12Z" transform="translate(-2.03 -1.44)"/><path class="cls-2" d="M55.36,72.05c.23-.06-.13-.34.09-.34a3.31,3.31,0,0,0-.85-.11A1.76,1.76,0,0,1,55.36,72.05Z" transform="translate(-2.03 -1.44)"/><path class="cls-2" d="M54.15,71.55a3.1,3.1,0,0,0,.45,0A1.33,1.33,0,0,0,54.15,71.55Z" transform="translate(-2.03 -1.44)"/><path class="cls-2" d="M57,73a.5.5,0,0,0-.29-.3l.12.25Z" transform="translate(-2.03 -1.44)"/><path class="cls-2" d="M56.81,73h0l-.38-.11Z" transform="translate(-2.03 -1.44)"/><path class="cls-2" d="M57,73,57,73S57,73,57,73Z" transform="translate(-2.03 -1.44)"/><path class="cls-2" d="M59,73.58c-.29.09-.91.16-.34.4C58.84,73.86,58.52,73.72,59,73.58Z" transform="translate(-2.03 -1.44)"/><path class="cls-2" d="M57.19,73.34l.49.14c0-.06-.08-.16.07-.19Z" transform="translate(-2.03 -1.44)"/><polygon class="cls-2" points="54.91 71.91 55.16 71.9 54.98 71.84 54.91 71.91"/><path class="cls-2" d="M54.81,72.13a1.94,1.94,0,0,1-.69-.23,4.78,4.78,0,0,0,.74.46C54.93,72.31,55.09,72.25,54.81,72.13Z" transform="translate(-2.03 -1.44)"/><path class="cls-2" d="M55.76,72.6h0S55.75,72.64,55.76,72.6Z" transform="translate(-2.03 -1.44)"/><polygon class="cls-2" points="49.84 68.96 49.85 69.02 49.88 68.99 49.84 68.96"/><path class="cls-2" d="M54.89,72.41a.62.62,0,0,0,.46.12c-.15,0-.32-.1-.49-.17S54.82,72.4,54.89,72.41Z" transform="translate(-2.03 -1.44)"/><path class="cls-2" d="M53.47,71.26a2.32,2.32,0,0,0,.26.3C53.67,71.44,53.53,71.23,53.47,71.26Z" transform="translate(-2.03 -1.44)"/><path class="cls-2" d="M55.66,72.52h0C55.65,72.45,55.65,72.48,55.66,72.52Z" transform="translate(-2.03 -1.44)"/><path class="cls-2" d="M55.66,72.52a1.58,1.58,0,0,0-.31,0,1.75,1.75,0,0,0,.36.07Z" transform="translate(-2.03 -1.44)"/><path class="cls-2" d="M50.32,71c.08-.07.27,0,.47.08a1.39,1.39,0,0,1,.58.53c.51.2.62-.55.51-1.11-.07.06-.12.13-.61-.1.08.2.77.92.31.79-.63-.35-.42-.41-.62-.71.07.39-.92-.3-1.05.08l.57.31S50.22,70.8,50.32,71Z" transform="translate(-2.03 -1.44)"/><path class="cls-2" d="M52.66,71.05l.18.1a2,2,0,0,1-.43-.64c-.33-.13-.44-.12-.5-.08l.41.33.41.31Z" transform="translate(-2.03 -1.44)"/><path class="cls-2" d="M53.63,71.66c-.25.1-.74-.08-.59.28.54.32.47.08.84.18-.89-.47.3,0-.25-.44.18.07.34.16.49.22a2.57,2.57,0,0,1-.39-.34v0h0s0,.06,0,0h0l-.08,0c-.22-.19,0-.07.08,0s0,0,0,0h0l-.45-.2a4.7,4.7,0,0,1-.45-.23A3.7,3.7,0,0,0,53.63,71.66Z" transform="translate(-2.03 -1.44)"/><path class="cls-2" d="M58,74.4s0,0,0-.05S57.89,74.38,58,74.4Z" transform="translate(-2.03 -1.44)"/><path class="cls-2" d="M57.61,74.2a.54.54,0,0,1,.39,0c.21.09,0,.11,0,.18.16,0,.53-.11.09-.26l-.08,0c-.4-.15-.86-.51-.78-.52A1.38,1.38,0,0,0,57.61,74.2Z" transform="translate(-2.03 -1.44)"/><path class="cls-2" d="M55.42,73.15l-.82-.23.32.35,0-.12C55.38,73.39,55.33,73.22,55.42,73.15Z" transform="translate(-2.03 -1.44)"/><polygon class="cls-2" points="49.83 68.81 50.06 68.7 49.48 68.66 49.83 68.81"/><polygon class="cls-2" points="48.97 68.14 49.13 68.02 48.83 67.92 48.97 68.14"/><path class="cls-2" d="M52.1,39.43l.28,0A1.3,1.3,0,0,0,52.1,39.43Z" transform="translate(-2.03 -1.44)"/><path class="cls-2" d="M50.17,38.82l-.07.09C50.21,38.87,50.25,38.84,50.17,38.82Z" transform="translate(-2.03 -1.44)"/><path class="cls-2" d="M32.4,48.83c-.11-.41-.16-.92-.31-.74l-.09.24A1.44,1.44,0,0,1,32.4,48.83Z" transform="translate(-2.03 -1.44)"/><path class="cls-2" d="M34.6,40.86l-.12,0-.21.25Z" transform="translate(-2.03 -1.44)"/><path class="cls-2" d="M34.69,39.91l.52.05A2.21,2.21,0,0,0,34.69,39.91Z" transform="translate(-2.03 -1.44)"/><path class="cls-2" d="M61.43,44.76l.39.06C61.45,44.47,61.54,44.71,61.43,44.76Z" transform="translate(-2.03 -1.44)"/><path class="cls-2" d="M42.19,61.89a5.67,5.67,0,0,0-.45-.66C41.9,61.6,42,62,42.19,61.89Z" transform="translate(-2.03 -1.44)"/><path class="cls-2" d="M50.63,41.4c.15,0,.23,0,.24,0C50.71,41.33,50.62,41.34,50.63,41.4Z" transform="translate(-2.03 -1.44)"/><path class="cls-2" d="M41.12,60.57c0,.06.05.1.07.16a3.15,3.15,0,0,1,.55.5A1.15,1.15,0,0,0,41.12,60.57Z" transform="translate(-2.03 -1.44)"/><path class="cls-2" d="M71.49,80.83a.25.25,0,0,1,0,.09S71.51,80.89,71.49,80.83Z" transform="translate(-2.03 -1.44)"/><path class="cls-2" d="M69.71,91.89c0-.11,0-.3,0-.48A1.82,1.82,0,0,0,69.71,91.89Z" transform="translate(-2.03 -1.44)"/><path class="cls-2" d="M47.6,66.42c.2.14,0,0,0,0Z" transform="translate(-2.03 -1.44)"/><path class="cls-2" d="M48,67.86a.13.13,0,0,0-.15,0A.16.16,0,0,1,48,67.86Z" transform="translate(-2.03 -1.44)"/><path class="cls-2" d="M38.53,59.65v0C38.53,59.71,38.53,59.7,38.53,59.65Z" transform="translate(-2.03 -1.44)"/><path class="cls-2" d="M47.82,66.73a2,2,0,0,0-.2-.25A2.55,2.55,0,0,0,47.82,66.73Z" transform="translate(-2.03 -1.44)"/><path class="cls-2" d="M47.85,66.62l.15.16S48,66.73,47.85,66.62Z" transform="translate(-2.03 -1.44)"/><path class="cls-2" d="M47.34,66.21a2.4,2.4,0,0,1,.28.27s0-.07,0-.06Z" transform="translate(-2.03 -1.44)"/><path class="cls-2" d="M68.13,61.16a.11.11,0,0,1,0,.05C68.25,61.45,68.22,61.34,68.13,61.16Z" transform="translate(-2.03 -1.44)"/><path class="cls-2" d="M26.54,45.42l0,0,0,0Z" transform="translate(-2.03 -1.44)"/><path class="cls-2" d="M25.88,44.79a.93.93,0,0,1,.67.62l.34-.63Z" transform="translate(-2.03 -1.44)"/><path class="cls-2" d="M56.35,41.39l-.48-.48c.85.07,1.31.44.89-.09-.26.36-1.11-.19-1.8-.48l.11.06c-.41-.18-.76-.26-.9,0L53.84,40c.11.06.15,0,.26.1a.62.62,0,0,0-.74-.24,1.35,1.35,0,0,1-1-.1c-.33-.18-.54-.36-.27-.35l-.85-.13c-.23-.09-.14-.19.09-.09l-.19-.06a3.07,3.07,0,0,0-.43-.1l-.63-.13h0a6.17,6.17,0,0,1-.84.15c-.3-.17.17,0,.1-.14H49l-.36,0c-.26-.2.35-.34.82-.17-.25-.43-.41-.42-.66-.36a2,2,0,0,1-1.3-.18h.68c-.38-.44-.93-.41-1.69-.66.09.07.47.23.72.41s.37.38,0,.42a1.41,1.41,0,0,0-.91,0c0-.25-.4-.21-.9-.21l0-.33c-.55.09-.5.27-.81.42a.94.94,0,0,1-.9-.47c-1,0,.69.38-.44.49a5.14,5.14,0,0,0-2.25.45c-.56,0,.06-.21-.14-.28l-.45.33c-.12,0-.09-.07-.08-.12-.39.16,0,.33-.6.51-.11.38-1.38-.3-2.08.24-.21,0,0-.21,0-.33A8.25,8.25,0,0,0,36,40L35.21,40c.58.14-.05.55-.61.9.21.08.39.15.51.18l-.93.36c-.13,0,0-.16.09-.33l-.17.11c-.37-.06-.22-.27,0-.5l.39.14c.2-.24.38-.5.3-.68a1.18,1.18,0,0,1-.3.15c.05-.07.08-.12,0-.15s-.12.06-.26.17L34,40l0,.16H32.66c-.42.26-.8.54-1.26.81a4.93,4.93,0,0,1-1.71.66c.33-.3,0-.44,0-.76.43.3,1.09-.25,1.83-.3-.39,0-.33-.14-.24-.21l-.63.25-.64.22c0-.26-.29-.16-.64-.24.15.25-.09.36-.43.43s-.78.08-1,.17c0-.17.08-.35.72-.34-.72-.36-.89.65-1.61.34.15,0,.24,0,.3-.07-.37.17-1.27,0-1-.14h.15c-.28,0-.65,0-1,0l-1.63,0,.84,1.28c.6.92,1.34,1.92,1.69,1.81a2.48,2.48,0,0,1-.63.18l1.17.37,1.16.35c-.4.08-.71,1.17-1.42.55a2.1,2.1,0,0,0,.71.9c-.07-.18.15-.68.33-.52A5.07,5.07,0,0,0,28,47.19c-.11-.26.53-.39.78-.07-.11,0-.42.4-.56.33l1.12.42c-.25-.13-.41.28-.38.56,0-.15.59.7.81.87l-.19-.42c.71.94,1.38.33,2.12,1.23-.18,0-.78.22-.45.71a4.76,4.76,0,0,1,2.7.62v.27l.66.49a19.5,19.5,0,0,1-3-.89c.19.42-.07.22.37.7,0,.28-.41-.11-.55-.25l.46.61.44.61c.22-.28,1,.66,1.18.44l-1.31-1c.21-.27,1.35.11,2,1,0,.3-.61.22-.69.31a2,2,0,0,1,.78.79l-.41-.24c.24.53.91.49,1.09,1.2l-.09-.17v.06c.1.24,0,.89.16.84a1.89,1.89,0,0,1,1.61-1,9.73,9.73,0,0,1,.21,1.66c-.07.52-.92-.2-1,.24.09,0,.3.13.37.19.07.28-.33.06,0,.54.36-.1.63,1,.41.08.39.42.27.55.65,1.1.08-.3.94.08,1.38.43-.09,0-.1.2-.11.28.35.45.58.83.82,1.2a12,12,0,0,0,.88,1.08c0,.13.29.58,0,.52a1.31,1.31,0,0,1,.56.33c.13.33,0,.21-.17.08s-.33-.28-.29,0c.16-.1.81.41,1.24.65.12-.34-.76-.78-1.16-1.06.16-.15.45-.15.83,0a4.62,4.62,0,0,1,1.31.62c.71.52.08.46.24.52,1.18,1.17,1.55.37,2.37,1.51.24.56-.33.43-.37.66-.62-.39-.72-.86-1.1-1.17l.37.49a1.85,1.85,0,0,1-.79-.58,6.18,6.18,0,0,0,1.22,1.26,17.14,17.14,0,0,1,1.72,1.62c.23.08.59.26.52,0l-.33-.23c-.14-.41.78.26.45-.15a4.13,4.13,0,0,1,1.66,1l0,.1,0,0-.09.23s0-.06,0-.12l0,0a1,1,0,0,0-.46-.41c.15,0,.28.24.43.45l0,0c.18.29.38.61.69.58l-.23-.52a4.89,4.89,0,0,1,1.62,1c0-.43-.13-.08-.23-.66,0,.62-1.21-1.17-1.07-.38a1.17,1.17,0,0,0-.2-.58l-.07-.06a2.53,2.53,0,0,1-.55-.82c0,.1,0,.31-.36-.1l-.15,0,0,0,0,0s0,0,0,0a.73.73,0,0,1,.13.31c-.38,0-1.07-.6-1.38-.7s.18,0,.11-.2L46.24,66c.11-.21-.44-.87.25-.47L46,65.1a2.92,2.92,0,0,0-1-.95c-.22-.25-.8-.36-.46-.3l-.93-.63,0,0c-.75-.76-1.91-1.24-2.43-2.44a3.35,3.35,0,0,1-.93-.95l.08-.22c-.34-.31-.69-1.19-1-1.21a2.07,2.07,0,0,0-.54-1.3l-.52-.69a2.36,2.36,0,0,1-.34-.64l-.25.1a9.25,9.25,0,0,0-.92-1.45l-.12-.22,0,0-.16.17c-.54-.39-.85-1.42-1.5-2.19.11,0,.26.21.33.39C35,51.22,33.42,50.77,33,49.72a1,1,0,0,1-.43-.49l0,0-.07-.08a2.75,2.75,0,0,0-.15-.36,1.58,1.58,0,0,0,.11.31,4.4,4.4,0,0,0-.61-.55l.1-.26-.05,0c-.13-.28-.24-.1-.28.14a2.08,2.08,0,0,0-.38-.21c.14-.44-.63-.51-.52-1-.28,0-1.11-1-1.54-.89,0,0,0-.13.11,0a1.82,1.82,0,0,0-.63-.74l.16-.3-.79-.31c-.12-.48-.13-.69.32-.48-.92-.63-.62-.61-1.45-1.13l.2-.07c-.2-.26-.68-.55-.65-.81a3.16,3.16,0,0,0-.45-1.08l-.77,1.23c.63,0,1.41.09,2.21.08s1.59,0,2.27,0c-.43-.56.93.17.95-.3.13.13.41.18.11.34,1-.28,1.51,0,2.11-.48.14.12-.17.24-.06.3s.29-.17.4-.11-.12.14-.26.23c1-.2,1-.64,1-1.06a.94.94,0,0,0,1.07-.3c.2.1.51.18-.08.34.34,0,2.1-.2,2.07-.53.12.07.48-.06.56-.12a15.38,15.38,0,0,0,1.56-.26H39c.23-.44.6-.21,1.19-.34v0c1.41.1.58-.24,2-.07l-.1-.23c0-.27.34-.23.74-.14a3.12,3.12,0,0,0,1.25.09L43.73,40c.43-.2,1.22.66,1.63.73.09.05-.15.07-.27.11,1.08.34.14-.32,1-.37.14.18-.21.44.33.49.25.11,1.62-.4,2.31,0-.14-.16-.28-.32.11-.35a4.12,4.12,0,0,1,1,.43,2.3,2.3,0,0,0,.52.18.82.82,0,0,0,.49,0c0,.06.07.11.06.14a12.42,12.42,0,0,0,1.74.24c0,.48.66.69,1.28.87l.06,0c.63.21,1.23.38,1,.72l.63.31a4.24,4.24,0,0,1,.6.33l-.07,0a2.18,2.18,0,0,0,1.45.54c.15.16,0,.14-.06.16a7.17,7.17,0,0,0,1,.85,8.82,8.82,0,0,0,1.13.48l-.09.27c.16.05.43.44.8.89a6.56,6.56,0,0,0,1.28,1.42.22.22,0,0,1-.18,0,2.54,2.54,0,0,1,.71.87,9.81,9.81,0,0,1,.52,1c.28.68.57,1.21,1.1,1.22l.61.76c-.46-1.15.44,0,.36-.54.27.43.29,1.27,0,.74v-.1c-.27,0-.13.36,0,.74s.27.79.11.84a30.07,30.07,0,0,1,1.41,6.88l.34-.32.09.8c-.06.22-.25.32-.32-.25-.17.33.31.92.39.93,0,1.13-.48-.38-.45,0l.08.46,0-.11a1.75,1.75,0,0,1,.41,1.06c0,.44-.2.25-.2.42,0,0,0,.06,0,.26l0,1,.26-.43c.18.44.07,1,.36.46a5.18,5.18,0,0,0-.14,2.23c0,.24,0,.48,0,.7s.06.42.08.61a3.32,3.32,0,0,1,0,.75,6.8,6.8,0,0,1,.47,2c0-.2.34-.37.4.3-.71-.13-.1,1.27-.48,1.89.23-.53.42,1.87.74,1,0,.56-.25.08-.33.53.5,1.26.38,2.91.74,4.5.09,0,.18-.28.38,0l-.3.92c.09.31.55.21.33.84.06-.09.16-.23.22,0,0,.8.09,1.6.15,2.39s.21,1.58.24,2.41c0,.42,0,.83.06,1.24v.58c0,.19,0,.39,0,.59a21.64,21.64,0,0,1-.51,2.49c.19-.47.2-.15.2.21,0-.24.22,0,.34,0s-.08.36-.14.74a3.75,3.75,0,0,0-.07.52l0,.25c.2.12.27.52.38.91a3.9,3.9,0,0,0,.21.53c.09.15.18.25.27.25l-.13-.23a2,2,0,0,1-.12-.22c.29.24.4-.07.53-.39s.3-.67.55-.68c-.27-.25-.18-.67-.06-1.12a1.86,1.86,0,0,0,0-1.46c.11-.22.14.2.26.09a1.37,1.37,0,0,1-.08-1.19l0,.07c.05-.88.09-1.51.12-2.16s.13-1.28.12-2.26l-.23.16a2.1,2.1,0,0,1,.11-.72c-.42-.45.09,1.18-.36.76.44-.58-.27-2.94.2-3.36-.08-.63-.25.23-.33-.4l.12-.19-.21-.13c0-.42.12-.66.25-.69a2.66,2.66,0,0,0,.1.38,6.26,6.26,0,0,0-.28-1.68l0,.61A52,52,0,0,0,70,74.42l-.09.14c-.43-1.2-.08-1-.39-2.35l0,0a2.63,2.63,0,0,1-.32-1c.19.32.16-.68.38-.26-.44-1.3-.27-.63-.82-1.46l.17-.23a1.58,1.58,0,0,1-.44-1c.23.54.23-.47.53.13a3.08,3.08,0,0,0,0-.51,1.34,1.34,0,0,0,0-.2,1.48,1.48,0,0,0,0-.21,4.59,4.59,0,0,0-.15-.74A1.16,1.16,0,0,1,69,65.69c-.57-.63-.2,1.28-.34.91-.15.32-.43-.52-.41-1s.6-.84.48-2c0,.12.06.13.07.24.08-.45-.28-.84-.12-1.41-.35-.26-.06-.7-.48-.74,0,0,.06.27.11.53l.11.54c-.17-.6-.71-1.11-.63-2.14a1.8,1.8,0,0,1,.33.55c.08-.31-.16-.56-.08-.88.41,0,.29,1.3.66,1.91.15-.34-.45-1.2,0-.93-.63-.4-.07-1.18-.65-1.91h.25a2.2,2.2,0,0,1-.26-.59l.39.37c-.39-.6,0-1.3-.29-1.9.31,1.3-.22.35-.28.94-.32-.76-.23-1-.11-1.32a1.46,1.46,0,0,0,.14-.53,2.18,2.18,0,0,0-.18-1c.11.23.12.95-.09.6a3.29,3.29,0,0,1,0-1.07c-.41-1.17-.19.25-.48-.2.17-.49-.29-.54-.57-1l.23-.08c-.36-1.37-.59-.17-.9-1.39l.27.17.26.18a2.08,2.08,0,0,0-.17-.29L66.08,52h.32a3.48,3.48,0,0,1-.79-1.46c-.07.22-.44.13-.76-.4-.08-.44.33.09-.15-.66.23.09.52.19.51.64.09,0,.24.09.33.09a4.59,4.59,0,0,0-.72-1.31,1.12,1.12,0,0,1,.12.33l-.14-.14a3.6,3.6,0,0,0-.34-.31l-.52-.43c0-.22.11-.13.27,0a7.43,7.43,0,0,1-.62-.58c.22,0,.37-.19.77.21l-.45-.44-.32-.3-.15-.13c0-.11-.24-.63-.07-.56a3.94,3.94,0,0,0-.91-.84,4,4,0,0,1-1.08-.88.89.89,0,0,1-.32-.16,12.46,12.46,0,0,0-.88-.9A3.74,3.74,0,0,0,59,43s-.06-.16-.13-.31l-.15-.3c-.71-.36.4.79-.77.2-.84-.39-.13-.44-.35-.7a3.45,3.45,0,0,1-2-.8A4.38,4.38,0,0,1,56.35,41.39Zm-9.13-3c.19,0,.58-.13.7,0C47.67,38.7,47.53,38.55,47.22,38.42Zm-14,2.21a.64.64,0,0,1,.56,0A1.27,1.27,0,0,1,33.19,40.63ZM45.43,64.85h0C45.17,64.52,45.26,64.64,45.43,64.85Zm.56.61c.09,0,.11,0,.1,0s-.23-.1-.37-.25C45.72,65.24,45.77,65.35,46,65.46Zm20.79-1.53,0-.16C66.94,64.12,66.86,64,66.78,63.93Z" transform="translate(-2.03 -1.44)"/><path class="cls-2" d="M34.68,40a.23.23,0,0,1,.1.12C34.84,40.08,34.83,40,34.68,40Z" transform="translate(-2.03 -1.44)"/><path class="cls-2" d="M61.36,44.75l0,0,0,0Z" transform="translate(-2.03 -1.44)"/><path class="cls-2" d="M35.84,57.4a.89.89,0,0,1,0-.37C35.74,57.06,35.73,57.15,35.84,57.4Z" transform="translate(-2.03 -1.44)"/><path class="cls-2" d="M49.65,68.07l-.41-.31a1,1,0,0,1,.27.38S49.53,68,49.65,68.07Z" transform="translate(-2.03 -1.44)"/><path class="cls-2" d="M52.11,72.11c.08,0,.13.09.21.11l0-.11C52.1,71.93,51.85,71.87,52.11,72.11Z" transform="translate(-2.03 -1.44)"/><path class="cls-2" d="M49.42,69c-.11.19.18.35.47.57l0,0C50.12,69.37,49.77,69.19,49.42,69Z" transform="translate(-2.03 -1.44)"/><path class="cls-2" d="M50,69.61a1.79,1.79,0,0,1,.25.22C50.32,69.77,50.13,69.72,50,69.61Z" transform="translate(-2.03 -1.44)"/><path class="cls-2" d="M46.88,66c.1.15.25-.13.28,0C47.48,66,46.06,65.52,46.88,66Z" transform="translate(-2.03 -1.44)"/><polygon class="cls-2" points="47.15 68.25 47.22 67.98 46.93 67.99 47.15 68.25"/><path class="cls-2" d="M47.13,67.59l.4.44s.1,0,.18,0C47.44,67.82,47.16,67.52,47.13,67.59Z" transform="translate(-2.03 -1.44)"/><path class="cls-2" d="M47.71,68.06a1.37,1.37,0,0,0,.39.28A2.84,2.84,0,0,0,47.71,68.06Z" transform="translate(-2.03 -1.44)"/><polygon class="cls-2" points="46.51 67.75 46.42 67.59 46.13 67.29 46.51 67.75"/><path class="cls-2" d="M42.36,63.39,41.84,63c-.11,0,0,.18.18.32S42.37,63.52,42.36,63.39Z" transform="translate(-2.03 -1.44)"/><path class="cls-2" d="M43.34,65.23a.6.6,0,0,1-.09-.34l-.22.23Z" transform="translate(-2.03 -1.44)"/><path class="cls-2" d="M41.88,64c-.11,0-.86-.47-.25.09C41.74,64.08,42.27,64.48,41.88,64Z" transform="translate(-2.03 -1.44)"/><polygon class="cls-2" points="34.12 54.63 34.2 54.78 34.65 54.52 34.12 54.63"/><path class="cls-2" d="M30,50.14c.42.66.37-.07.71.55.21.05-.28-.51-.08-.44C30.24,50,30.13,49.76,30,50.14Z" transform="translate(-2.03 -1.44)"/><path class="cls-2" d="M30.64,50.25l.22.12A1.33,1.33,0,0,0,30.64,50.25Z" transform="translate(-2.03 -1.44)"/><path class="cls-2" d="M69.76,94s.09.61.11.63,0-.44,0-.44Z" transform="translate(-2.03 -1.44)"/><path class="cls-2" d="M70.58,95l-.23.27.41.1C70.69,95.23,70.55,95.06,70.58,95Z" transform="translate(-2.03 -1.44)"/><path class="cls-2" d="M45.8,37.69l0,.07c.08.09.21.11.45.13Z" transform="translate(-2.03 -1.44)"/><polygon class="cls-2" points="50.82 37.91 50.7 37.86 50.81 38.22 50.82 37.91"/><path class="cls-2" d="M58.24,41.75c-.2-.14-.48-.24-.68-.38C58,41.61,58.1,42.1,58.24,41.75Z" transform="translate(-2.03 -1.44)"/><path class="cls-2" d="M82.78,75.08c.08-.11-.13-.16-.16-.19C82.57,75.08,82.83,75.1,82.78,75.08Z" transform="translate(-2.03 -1.44)"/><polygon class="cls-2" points="82.74 75.08 82.73 75.17 83.01 74.86 82.74 75.08"/><path class="cls-2" d="M87,75.85c-.31-.3-.8.29-1.24.28l-.09-.06-.09.34A5.19,5.19,0,0,1,87,75.85Z" transform="translate(-2.03 -1.44)"/><path class="cls-2" d="M88.43,76.28c-.11-.11.23-.18-.29,0l.06,0A.88.88,0,0,1,88.43,76.28Z" transform="translate(-2.03 -1.44)"/><path class="cls-2" d="M88.2,76.34c-.24.07.18.07,0,0Z" transform="translate(-2.03 -1.44)"/><path class="cls-2" d="M89.28,76l-.28.21c.08.06.37,0,.28.09C89.59,76.12,89.5,76.06,89.28,76Z" transform="translate(-2.03 -1.44)"/><path class="cls-2" d="M89.52,75.64l-.15.09S89.45,75.76,89.52,75.64Z" transform="translate(-2.03 -1.44)"/><path class="cls-2" d="M89.05,75.93l.32-.2c-.07,0-.1-.16-.15.08C89.22,75.7,89.17,75.82,89.05,75.93Z" transform="translate(-2.03 -1.44)"/><path class="cls-2" d="M88.83,75.93c-.19,0-.43,0-.15-.23C88.09,75.91,88.24,76.13,88.83,75.93Z" transform="translate(-2.03 -1.44)"/><path class="cls-2" d="M87,75.45l-.27,0-.17.18C86.68,75.5,87.08,75.56,87,75.45Z" transform="translate(-2.03 -1.44)"/><path class="cls-2" d="M91.31,75.66c0-.08-.16-.17-.2-.26l-.22.14C91,75.56,91.27,75.56,91.31,75.66Z" transform="translate(-2.03 -1.44)"/><path class="cls-2" d="M91.11,75.4l.32-.22C91.11,75.24,91.07,75.32,91.11,75.4Z" transform="translate(-2.03 -1.44)"/><polygon class="cls-2" points="87.45 73.79 86.94 74.21 87.56 73.76 87.45 73.79"/><polygon class="cls-2" points="90.64 73.9 90.48 74.13 90.78 73.78 90.64 73.9"/><path class="cls-2" d="M93.56,75.09c-.11.18.27.2.13.32a1.55,1.55,0,0,0,.58-.42A1,1,0,0,1,93.56,75.09Z" transform="translate(-2.03 -1.44)"/><path class="cls-2" d="M94.54,74.75a2.75,2.75,0,0,0-.27.24A.87.87,0,0,0,94.54,74.75Z" transform="translate(-2.03 -1.44)"/><path class="cls-2" d="M92,75.07a.4.4,0,0,0,.33.15L92.18,75Z" transform="translate(-2.03 -1.44)"/><path class="cls-2" d="M92.17,75h0l.31-.06Z" transform="translate(-2.03 -1.44)"/><path class="cls-2" d="M92,75.08h0S92,75.05,92,75.08Z" transform="translate(-2.03 -1.44)"/><path class="cls-2" d="M90.45,75.19c.17-.17.58-.4.11-.48C90.45,74.89,90.72,74.94,90.45,75.19Z" transform="translate(-2.03 -1.44)"/><path class="cls-2" d="M91.77,74.86l-.39,0s.11.12,0,.2Z" transform="translate(-2.03 -1.44)"/><polygon class="cls-2" points="89.91 73.3 89.74 73.42 89.89 73.4 89.91 73.3"/><path class="cls-2" d="M93.85,74.71a1.35,1.35,0,0,1,.51-.25,5.16,5.16,0,0,0-.67.1C93.68,74.64,93.62,74.78,93.85,74.71Z" transform="translate(-2.03 -1.44)"/><path class="cls-2" d="M93,74.85l0,0S93,74.82,93,74.85Z" transform="translate(-2.03 -1.44)"/><polygon class="cls-2" points="94.33 72.51 94.28 72.48 94.29 72.52 94.33 72.51"/><path class="cls-2" d="M93.65,74.53a.43.43,0,0,0-.34.16l.38-.13S93.7,74.51,93.65,74.53Z" transform="translate(-2.03 -1.44)"/><path class="cls-2" d="M95.08,74.51a1.65,1.65,0,0,0-.32,0C94.86,74.51,95.06,74.57,95.08,74.51Z" transform="translate(-2.03 -1.44)"/><path class="cls-2" d="M93.13,74.88h0C93.17,74.93,93.16,74.9,93.13,74.88Z" transform="translate(-2.03 -1.44)"/><path class="cls-2" d="M93.13,74.88a.65.65,0,0,0,.18-.19,2.8,2.8,0,0,0-.25.14A.18.18,0,0,1,93.13,74.88Z" transform="translate(-2.03 -1.44)"/><path class="cls-2" d="M96.58,72.43c0,.2-.35.5-.77.39-.32.24.09.82.5,1.1,0-.09,0-.17.31-.38-.16-.08-.89,0-.63-.29.47-.24.42,0,.69,0-.27-.19.53-.53.32-.86l-.39.24S96.72,72.45,96.58,72.43Z" transform="translate(-2.03 -1.44)"/><path class="cls-2" d="M95.59,74.09l-.15.06a1.63,1.63,0,0,1,.61.13c.23-.16.26-.25.26-.32l-.76.17Z" transform="translate(-2.03 -1.44)"/><path class="cls-2" d="M94.75,74.33c.07-.24.41-.43.13-.6-.45.13-.27.26-.52.42.72-.24-.18.17.38.16a2.3,2.3,0,0,1-.38.15h.38s0,0,0,0h0s0-.06,0-.09c.23,0,0,0,0,.09v0h0l.7-.31A3.17,3.17,0,0,0,94.75,74.33Z" transform="translate(-2.03 -1.44)"/><path class="cls-2" d="M90.84,74.15s0,0,0,0S90.93,74.14,90.84,74.15Z" transform="translate(-2.03 -1.44)"/><path class="cls-2" d="M91.17,74.21s-.07.14-.25.16,0-.1,0-.17-.32.24,0,.27l0,0c.31,0,.75.18.71.22A1.46,1.46,0,0,0,91.17,74.21Z" transform="translate(-2.03 -1.44)"/><path class="cls-2" d="M93,74.22l.58-.26-.35-.11,0,.11C92.88,74,93,74.12,93,74.22Z" transform="translate(-2.03 -1.44)"/><polygon class="cls-2" points="94.42 72.6 94.4 72.84 94.67 72.43 94.42 72.6"/><polygon class="cls-2" points="95.21 72.36 95.23 72.56 95.41 72.38 95.21 72.36"/><path class="cls-2" d="M95.45,58.62l-.14.12A.63.63,0,0,0,95.45,58.62Z" transform="translate(-2.03 -1.44)"/><path class="cls-2" d="M96.64,58.19v-.11C96.6,58.15,96.59,58.2,96.64,58.19Z" transform="translate(-2.03 -1.44)"/><path class="cls-2" d="M113.68,62c.29-.21.64-.47.42-.49l-.24,0A.69.69,0,0,1,113.68,62Z" transform="translate(-2.03 -1.44)"/><path class="cls-2" d="M106.85,54.86l.08.06a2.29,2.29,0,0,0,.15-.24Z" transform="translate(-2.03 -1.44)"/><path class="cls-2" d="M106.77,55.79l-.36-.1A1.13,1.13,0,0,0,106.77,55.79Z" transform="translate(-2.03 -1.44)"/><path class="cls-2" d="M89.84,62.31v.3C90.07,62.41,89.9,62.41,89.84,62.31Z" transform="translate(-2.03 -1.44)"/><path class="cls-2" d="M105.21,70.81a2.24,2.24,0,0,0,.59-.16C105.48,70.67,105.19,70.61,105.21,70.81Z" transform="translate(-2.03 -1.44)"/><path class="cls-2" d="M95.08,56.23c-.1.08-.13.14-.11.19S95.12,56.27,95.08,56.23Z" transform="translate(-2.03 -1.44)"/><path class="cls-2" d="M106.42,70.31l-.14,0a1.55,1.55,0,0,1-.48.32A.66.66,0,0,0,106.42,70.31Z" transform="translate(-2.03 -1.44)"/><path class="cls-2" d="M82.84,85.77s0,0,0,.06S82.84,85.81,82.84,85.77Z" transform="translate(-2.03 -1.44)"/><path class="cls-2" d="M80.26,93.3a2.73,2.73,0,0,1,0-.31A.65.65,0,0,0,80.26,93.3Z" transform="translate(-2.03 -1.44)"/><path class="cls-2" d="M100.44,72.92c-.16.07,0,0,0,0Z" transform="translate(-2.03 -1.44)"/><path class="cls-2" d="M99.36,72.35a.13.13,0,0,0,0-.12A.16.16,0,0,1,99.36,72.35Z" transform="translate(-2.03 -1.44)"/><path class="cls-2" d="M107.19,68.21h0C107.13,68.19,107.15,68.2,107.19,68.21Z" transform="translate(-2.03 -1.44)"/><path class="cls-2" d="M100.16,72.91a.6.6,0,0,0,.23,0Z" transform="translate(-2.03 -1.44)"/><path class="cls-2" d="M100.23,73l-.16,0S100.09,73.09,100.23,73Z" transform="translate(-2.03 -1.44)"/><path class="cls-2" d="M100.67,72.84a1.4,1.4,0,0,1-.28.06s.06,0,0,0Z" transform="translate(-2.03 -1.44)"/><path class="cls-2" d="M83.71,71.88s0,0,0,0C83.74,72.09,83.74,72,83.71,71.88Z" transform="translate(-2.03 -1.44)"/><path class="cls-2" d="M112.11,57.2v0Z" transform="translate(-2.03 -1.44)"/><path class="cls-2" d="M111.92,56.63c.29.23.26.38.21.57l.63-.2-.42-.19Z" transform="translate(-2.03 -1.44)"/><path class="cls-2" d="M92.78,60,93,60h.23c-.27.52-.6.61-.15.66-.15-.32.17-.53.52-.72s.67-.39.55-.71l.31,0c-.07,0-.07.07-.14.09.62.1.14-.63.82-.8.24,0,.43,0,.31.13l.22-.18.21-.18c.16,0,.16.09,0,.13l.75-.33v0a2.62,2.62,0,0,1,.37-.49c.23,0-.07.1,0,.17l.39-.3c.23.11-.08.39-.38.46.61.54.3-.29,1.29-.15l-.19.1-.19.1c.37.29.65.08,1.17.18-.13-.09-1.09-.34-.66-.63A.7.7,0,0,0,99,57.3c.06.23.3.11.61,0l.06.33c.32-.18.25-.34.42-.53.39-.06.52.18.66.36.62-.08-.51-.3.2-.52a2.81,2.81,0,0,0,1.46-.5c.38,0,0,.21.12.28l.28-.32c.08,0,.07.08.06.12.26-.14,0-.32.38-.48.06-.38,1,.37,1.44-.11.15.07,0,.21,0,.32a4.61,4.61,0,0,0,1.15-.72l.55.14c-.41-.19,0-.54.44-.83a3.22,3.22,0,0,0-.37-.23l.67-.26c.09,0,0,.16-.07.31l.12-.09c.26.09.15.29,0,.5l-.27-.17c-.14.22-.27.45-.21.64a.5.5,0,0,1,.21-.12c0,.06-.06.11,0,.14s.09,0,.19-.14l.2.34,0-.15.92.13a5.34,5.34,0,0,1,2.1-1.29c-.23.29,0,.44,0,.76-.31-.31-.77.22-1.3.21.28,0,.23.16.17.22l.91-.4c0,.26.21.17.47.25-.24-.49.67-.41,1-.6,0,.17,0,.35-.5.36.55.33.61-.67,1.14-.39-.11,0-.17,0-.21.09.25-.18.92-.12.78,0l-.12,0,.29,0-.91-.71a6.38,6.38,0,0,0,.22,1.27c.12.4.22.71.42.75a3,3,0,0,1-.61-.11s.37.3.75.63l.52.46.22.22c-.37-.12-1.27.3-1.47-.3a1.12,1.12,0,0,0,0,.74c.06-.11.55-.27.58-.11-.44.43-.24.31-.62.82.09-.17.67.08.6.36-.08-.05-.58-.05-.63-.15l.24.37.23.39c-.07-.19-.47-.1-.66,0,.06,0,.05.12,0,.29a1.75,1.75,0,0,0-.11.46l.2-.25c-.28.71.63,1,.31,1.72-.08-.14-.61-.46-.81-.13a5.11,5.11,0,0,1,.58.84,2.22,2.22,0,0,1,.28,1.26l-.22,0-.14.59c-.1-.28-.19-.73-.35-1.2s-.28-.92-.35-1.21c-.24.21-.21,0-.38.38-.21.06-.12-.31-.08-.42l-.5.8c.33.13-.08.8.18.92,0,0,.06-.27.13-.55a3.12,3.12,0,0,0,.06-.37l0-.18a.81.81,0,0,1,.37.63,1.44,1.44,0,0,1-.25,1c-.21.08-.44-.46-.54-.51.07.15-.2.67-.31.67l0-.34c-.34.22,0,.8-.58.94-.13.11-.65.06-.52.21a2.84,2.84,0,0,1,1.49,1.2s-.27.13-.52.23a2.74,2.74,0,0,1-.7.18c-.42,0-.19-.83-.55-.86a.45.45,0,0,1,0,.34c-.18.05-.14-.27-.39,0,.19.31-.62.47.06.34-.23.32-.36.2-.7.48.25.09.15.87-.14,1.17,0-.09-.17-.13-.23-.15-.68.43-1.15.49-1.78.87-.11,0-.47,0-.41-.17a.7.7,0,0,1-.29.36c-.53-.07.43-.27,0-.44.07.19-.38.53-.63.77.23.25.7-.28.93-.54.2.37-.09,1.07-.74,1.57s-.36-.14-.44,0c-1.11.41-.64,1.1-1.68,1.18-.47-.12-.21-.51-.37-.66.45-.27.8-.13,1.11-.27l-.44,0a1,1,0,0,1,.61-.34c-.39-.1-1.86.7-2.79.76-.12.14-.36.32-.2.38l.26-.13c.32.13-.41.46,0,.45a2.1,2.1,0,0,1-1.22.68l-.19-.27c0,.08.39.07.51-.06-.18.19-.92-.17-1,.3l.43.1c-.33.27-.7.71-1.19.75.29.24.09-.06.53.19-.42-.34,1.2-.33.6-.65.46.3.64,0,1.19.2,0-.1-.21-.14.19-.22l.06-.12h0s0,0,0,0a.41.41,0,0,1-.25-.09c.12-.29.74-.49.9-.67s0,.14.11.2l.25-.28c.1.21.74.14.24.46l.49-.17a1.44,1.44,0,0,0,1-.27c.25,0,.48-.47.35-.23l.35-.22.35-.23,0,0a8.15,8.15,0,0,0,1.09-.64,2.69,2.69,0,0,1,1.28-.49,2.71,2.71,0,0,1,.86-.57l.18.12c.27-.25,1-.44,1-.7.32.11.69-.15,1.06-.47s.68-.74,1-.92l-.16-.21a4.75,4.75,0,0,0,.88-1.15l-.2-.12a1.85,1.85,0,0,1,.55-.68l.4-.37a2.36,2.36,0,0,0,.33-.45c0,.09-.07.24-.19.32a1.67,1.67,0,0,0,.77-1.17,2.31,2.31,0,0,1,.51-1.24.59.59,0,0,1,.17-.46v.05l0-.08.21-.23a1.23,1.23,0,0,0-.2.19,2.14,2.14,0,0,0,.12-.63l.26,0v-.06c.14-.2-.07-.21-.28-.14a1.14,1.14,0,0,0-.07-.34c.43-.08,0-.61.49-.77-.18-.19,0-1.17-.4-1.33,0,0,.09-.07.08.05a1,1,0,0,0,0-.72l.32-.09-.39-.56c.21-.32.31-.46.55-.13a11.43,11.43,0,0,0-.54-1.3l.2,0a1.53,1.53,0,0,0-.14-.41c-.06-.14-.1-.27,0-.35a2.82,2.82,0,0,0,.06-1.37l-.08-.77-.84.06a11.82,11.82,0,0,1-2.59.05c.32.57-.64-.2-.65.27-.09-.14-.28-.2-.08-.34-.66.21-1-.12-1.47.33-.09-.14.13-.23,0-.3s-.2.14-.28.07.08-.13.18-.2c-.69.1-.71.54-.71.95-.37-.15-.55-.1-.76.2-.14-.12-.36-.24.06-.34-.24,0-1.5,0-1.48.33-.09-.07-.34,0-.4.07a8.31,8.31,0,0,0-1.13.15l.16,0c-.15.42-.43.16-.85.28v0c-1-.12-.4.21-1.42.07l.1.23c0,.53-.92-.14-1.44.18l.24.1c-.27.23-1-.51-1.34-.5-.08,0,.09-.09.17-.15-.89-.1,0,.34-.61.56-.15-.14,0-.47-.38-.39-.25-.08-1,.87-1.66.73.16.09.32.18.08.36-.4.17-1.3-.08-1.53.45a.15.15,0,0,1-.12-.06c-.27.23-1,.57-1,.87-.31-.31-.77,0-1.15.32s-.71.63-.9.29l-.89.58,0-.09a1.33,1.33,0,0,0-.78.91c-.16,0-.11-.08-.12-.12-.88.46-1,.55-1.32,1.39l-.24-.14c0,.13-.37.28-.75.55a4.6,4.6,0,0,0-.57.46,2.11,2.11,0,0,0-.44.63.19.19,0,0,1,0-.16,5.42,5.42,0,0,1-1.22,1.32c-.4.42-.69.82-.41,1.23,0,0,0,.19-.08.37l-.08.37c.51-.76.27.32.59.07-.12.33-.69.65-.52.25l.08,0c-.17-.19-.35,0-.52.29s-.3.54-.44.46a28,28,0,0,0-2,4.88l.41-.1-.16.57c-.12.13-.33.14-.22-.27-.26.17,0,.73.09.76-.34.78-.36-.4-.42-.16l-.06.35.07-.07c.08.31.24.35.13.83-.13.29-.25.12-.29.23s0,0,0,.19l-.08.35,0,.13v0l0,.12v0a.5.5,0,0,1,0,.11l.16-.13,0,0h0V74h0l.06,0,0,0V74h0v.06h0v0a.49.49,0,0,1,0,.12c0,.07,0,.13,0,.18s0,.1.24,0c-.56.44-.45,2.66-.63,2.94a2.83,2.83,0,0,1,0,1.45c.08-.13.42-.18.33.28-.67-.23-.37.84-.89,1.18.35-.32,0,1.34.47.85-.08.39-.25,0-.44.29.19,1-.34,2-.34,3.21.08,0,.24-.16.35.1l-.49.58c0,.23.51.25.17.65.08-.06.2-.14.22,0a16,16,0,0,0-.29,3.47c0,.58,0,1.16-.09,1.74a7.09,7.09,0,0,1-.39,1.73c.18-.31.19-.1.19.14,0-.15.22,0,.35,0l-.36,1c.33.18,0,1,.32,1.14l0-.31c.37.41.86-.55,1.35-.48-.43-.46.67-1.18.06-1.94.11-.16.16.14.27.06-.2-.2-.24-.43-.14-.85l0,0a13.31,13.31,0,0,1,.43-3l-.25.09a1.19,1.19,0,0,1,.19-.47c-.34-.35-.06.79-.45.48.51-.36.12-2,.7-2.23,0-.44-.29.11-.26-.33l.16-.1-.19-.12c0-.29.24-.42.37-.42a.84.84,0,0,0,0,.27c.19-.36,0-1,.07-1.17l-.13.41a28.86,28.86,0,0,0,.06-3.83l-.12.08c-.14-.9.18-.7.16-1.67l0,0a1.26,1.26,0,0,1-.09-.73c.11.26.3-.44.42-.1-.14-1-.13-.49-.5-1.16L83,77.5a.94.94,0,0,1-.24-.75c.12.41.31-.28.48.18.52-1-.27-1.55.38-2-.48-.52-.37.85-.46.58-.19.2-.35-.43-.27-.74,0-.16.2-.29.38-.47l.07-.07,0,0h0c0,.12,0,0,0,.06h0l0,0a1.4,1.4,0,0,0,.13-.18,1,1,0,0,0,.19-.49c0,.08,0,.1,0,.18.18-.28-.07-.63.21-1-.27-.26.12-.45-.26-.59l0,.36c0,.18,0,.38,0,.38,0-.44-.39-.91,0-1.53a1,1,0,0,1,.15.44c.17-.16,0-.39.18-.56.38.15-.11.88.09,1.36.21-.16-.1-.86.28-.55-.47-.43.23-.72,0-1.35l.22.1a1,1,0,0,1,0-.44l.22.36c-.14-.49.46-.72.46-1.14-.28.8-.34.08-.63.37.06-1.11.78-.38,1.11-1.5,0,.15-.37.49-.38.22a1.61,1.61,0,0,1,.51-.5c.25-.74-.28,0-.29-.36.37-.12,0-.4.12-.75l.22.1c.54-.72-.37-.45.19-1.08l.07.23c0,.12.07.23.07.23a1.29,1.29,0,0,1,.06-.2l.06-.2.21.21a1.23,1.23,0,0,1,.45-.93c-.2,0-.35-.28-.13-.62.27-.15.11.25.39-.23.06.19.15.41-.18.49.06.06.06.19.12.25.3-.14.42-.58.54-.73a1,1,0,0,1-.17.14s0-.22.1-.42.11-.43.11-.43.14.09.14.21c.08-.15,0-.31.19-.51.11.17.28.3.16.62,0,0,.06-.19.14-.37l.16-.35c.1,0,.44-.13.43,0a1.66,1.66,0,0,0,.4-.62,1.32,1.32,0,0,1,.53-.65.38.38,0,0,1,.09-.21c.42-.33.93-.4,1.26-1l.24,0,.25.06c.36-.34-.65-.11,0-.68.42-.42.34.14.56.11.15-.29.39-.89,1-.88C93.06,59.85,92.91,59.87,92.78,60Zm5.64-2.47c-.1.09-.29.31-.41.19C98.06,57.39,98.2,57.49,98.42,57.51Zm9.43-2.29c-.09.09-.23.07-.41,0A.72.72,0,0,1,107.85,55.22ZM102.2,72.09v0C102.51,72.06,102.4,72.06,102.2,72.09Zm-.6.1c0,.06,0,.09,0,.11s.14-.12.29-.16C101.84,72.1,101.75,72.08,101.6,72.19ZM81.71,73.34l.08-.1C81.82,73.51,81.77,73.43,81.71,73.34Z" transform="translate(-2.03 -1.44)"/><path class="cls-2" d="M106.78,55.69a.25.25,0,0,1-.06-.13S106.68,55.65,106.78,55.69Z" transform="translate(-2.03 -1.44)"/><path class="cls-2" d="M89.84,62.26h0l0,0Z" transform="translate(-2.03 -1.44)"/><path class="cls-2" d="M108.35,66.06a.64.64,0,0,1,.24,0C108.55,66,108.48,66,108.35,66.06Z" transform="translate(-2.03 -1.44)"/><path class="cls-2" d="M98.74,73.58l.35-.17a.65.65,0,0,1-.36,0S98.85,73.54,98.74,73.58Z" transform="translate(-2.03 -1.44)"/><path class="cls-2" d="M95.19,73s-.11,0-.15.08l0,.11C95.3,73.09,95.44,73,95.19,73Z" transform="translate(-2.03 -1.44)"/><path class="cls-2" d="M98.17,72.89c-.09-.19-.29-.06-.53,0h0C97.69,73.23,97.93,73.06,98.17,72.89Z" transform="translate(-2.03 -1.44)"/><path class="cls-2" d="M97.58,73a.9.9,0,0,1-.23.08C97.35,73.16,97.45,73,97.58,73Z" transform="translate(-2.03 -1.44)"/><path class="cls-2" d="M100.94,72.58c-.14,0,0,.27-.09.22C100.8,73.09,101.55,72.23,100.94,72.58Z" transform="translate(-2.03 -1.44)"/><polygon class="cls-2" points="95.75 70.85 95.91 71.07 95.99 70.83 95.75 70.85"/><path class="cls-2" d="M99.8,71.87l-.42.06s0,.08-.08.11C99.55,72,99.83,71.94,99.8,71.87Z" transform="translate(-2.03 -1.44)"/><path class="cls-2" d="M99.3,72a.82.82,0,0,0-.31.14A1,1,0,0,0,99.3,72Z" transform="translate(-2.03 -1.44)"/><polygon class="cls-2" points="96.27 70.62 96.41 70.63 96.69 70.57 96.27 70.62"/><path class="cls-2" d="M104,70.29l.39-.26c0-.09-.14-.09-.27,0S103.91,70.24,104,70.29Z" transform="translate(-2.03 -1.44)"/><path class="cls-2" d="M102.48,70.19c.13,0,.16.06.25.11l-.11-.3Z" transform="translate(-2.03 -1.44)"/><path class="cls-2" d="M103.64,69.61c0-.1.48-.5,0-.25C103.61,69.46,103.24,69.71,103.64,69.61Z" transform="translate(-2.03 -1.44)"/><polygon class="cls-2" points="107.42 64.8 107.34 64.88 107.72 65.24 107.42 64.8"/><path class="cls-2" d="M111.27,60.82c-.26.41.27.2,0,.57.08.14.25-.3.31-.16C111.54,60.92,111.62,60.78,111.27,60.82Z" transform="translate(-2.03 -1.44)"/><path class="cls-2" d="M111.56,61.23a1.11,1.11,0,0,0,0,.17A.54.54,0,0,0,111.56,61.23Z" transform="translate(-2.03 -1.44)"/><polygon class="cls-2" points="77.93 93.13 77.81 93.47 77.99 93.25 77.93 93.13"/><path class="cls-2" d="M80.33,95.24l-.34.07.3.22C80.27,95.45,80.25,95.3,80.33,95.24Z" transform="translate(-2.03 -1.44)"/><path class="cls-2" d="M99.49,57.92v-.08c-.08-.07-.15-.06-.31,0Z" transform="translate(-2.03 -1.44)"/><polygon class="cls-2" points="93.17 57.64 93.24 57.62 92.99 57.39 93.17 57.64"/><path class="cls-2" d="M92.18,61.11a3.26,3.26,0,0,1,.36-.29C92.3,61,91.94,60.82,92.18,61.11Z" transform="translate(-2.03 -1.44)"/><path class="cls-2" d="M80.76,48.1c-.1.07.08.19.09.23a.17.17,0,0,0,0-.18S80.74,48.08,80.76,48.1Z" transform="translate(-2.03 -1.44)"/><polygon class="cls-2" points="83.15 45.46 83.06 45.55 83.83 45.34 83.15 45.46"/><path class="cls-2" d="M90.1,47.12c-.44-.4-1.8-.07-2.67-.23l-.14-.09-.41.27A19.69,19.69,0,0,1,90.1,47.12Z" transform="translate(-2.03 -1.44)"/><path class="cls-2" d="M92.72,48.09c-.16-.15.59-.09-.63-.09l.11,0Z" transform="translate(-2.03 -1.44)"/><path class="cls-2" d="M92.2,48.05c-.53,0,.34.14,0,0Z" transform="translate(-2.03 -1.44)"/><path class="cls-2" d="M94.6,48.08a3.62,3.62,0,0,1-.46,0l.15,0-.28.06a1,1,0,0,0,.28.07h-.17c.22,0,.45.08.28.12C95.16,48.33,95,48.24,94.6,48.08Z" transform="translate(-2.03 -1.44)"/><path class="cls-2" d="M95.3,47.85l-.37,0C95,47.92,95.09,47.94,95.3,47.85Z" transform="translate(-2.03 -1.44)"/><path class="cls-2" d="M94.26,48h-.11l.78-.06c-.1-.06-.1-.18-.37,0,.07-.1-.08,0-.41,0h.11Z" transform="translate(-2.03 -1.44)"/><path class="cls-2" d="M93.8,47.89c-.41-.09-.92-.17-.2-.26C92.24,47.61,92.41,47.89,93.8,47.89Z" transform="translate(-2.03 -1.44)"/><path class="cls-2" d="M90.38,46.76l-.51-.15-.45.1C89.64,46.66,90.41,46.87,90.38,46.76Z" transform="translate(-2.03 -1.44)"/><path class="cls-2" d="M99.12,48.36c0-.08-.26-.2-.31-.3l-.54.1C98.55,48.21,99.08,48.25,99.12,48.36Z" transform="translate(-2.03 -1.44)"/><path class="cls-2" d="M98.81,48.06,99.2,48c.2,0,.4-.1.4-.1C98.89,47.94,98.76,48,98.81,48.06Z" transform="translate(-2.03 -1.44)"/><path class="cls-2" d="M95.45,47.46a6.76,6.76,0,0,1-1.26.1.15.15,0,0,0,.1.06l0,0h-.07l1.52-.18Z" transform="translate(-2.03 -1.44)"/><path class="cls-2" d="M102.21,48l-.42.27.12-.07.26-.15.38-.21Z" transform="translate(-2.03 -1.44)"/><path class="cls-2" d="M104.23,47.57c-.15.11,0,.15.11.17s.25,0,.08.14a7.06,7.06,0,0,0,1.35-.7A4.44,4.44,0,0,1,104.23,47.57Z" transform="translate(-2.03 -1.44)"/><path class="cls-2" d="M106.41,46.81a6.15,6.15,0,0,0-.64.37A3.78,3.78,0,0,0,106.41,46.81Z" transform="translate(-2.03 -1.44)"/><path class="cls-2" d="M101,47.78a1,1,0,0,0,.66.15l-.34-.18Z" transform="translate(-2.03 -1.44)"/><path class="cls-2" d="M101.26,47.74h0a5,5,0,0,0,.67-.08A4.38,4.38,0,0,1,101.26,47.74Z" transform="translate(-2.03 -1.44)"/><path class="cls-2" d="M100.88,47.79H101A.05.05,0,0,0,100.88,47.79Z" transform="translate(-2.03 -1.44)"/><path class="cls-2" d="M97.51,47.73c.46-.13,1.42-.28.48-.45C97.67,47.43,98.2,47.53,97.51,47.73Z" transform="translate(-2.03 -1.44)"/><path class="cls-2" d="M100.46,47.56l-.84,0s.18.12-.05.21Z" transform="translate(-2.03 -1.44)"/><polygon class="cls-2" points="98.84 46.01 98.44 46.12 98.75 46.1 98.84 46.01"/><path class="cls-2" d="M104.94,47.05a5.65,5.65,0,0,1,1.13-.48c-.48.1-1,.23-1.42.37C104.61,47,104.44,47.21,104.94,47.05Z" transform="translate(-2.03 -1.44)"/><path class="cls-2" d="M103.16,47.43l.08,0C103.18,47.39,103.14,47.39,103.16,47.43Z" transform="translate(-2.03 -1.44)"/><path class="cls-2" d="M110.17,44.78h-.08v0Z" transform="translate(-2.03 -1.44)"/><path class="cls-2" d="M104.56,46.93a1.7,1.7,0,0,0-.43.13,1.8,1.8,0,0,0-.31.14,8.63,8.63,0,0,0,.83-.26S104.67,46.88,104.56,46.93Z" transform="translate(-2.03 -1.44)"/><path class="cls-2" d="M107.54,46.25c-.2,0-.41.08-.63.13C107.1,46.37,107.5,46.33,107.54,46.25Z" transform="translate(-2.03 -1.44)"/><path class="cls-2" d="M103.37,47.43l-.05,0C103.45,47.48,103.43,47.46,103.37,47.43Z" transform="translate(-2.03 -1.44)"/><path class="cls-2" d="M103.37,47.43a3.14,3.14,0,0,0,.45-.23c-.22.07-.41.13-.58.2Z" transform="translate(-2.03 -1.44)"/><path class="cls-2" d="M110.63,43c.07.22-.67.79-1.47,1-.63.5.11.87.93.86,0-.09-.06-.16.62-.65-.32,0-1.75.62-1.22.14.91-.6.82-.35,1.35-.5-.51,0,1-1,.57-1.22l-.72.6S110.88,42.86,110.63,43Z" transform="translate(-2.03 -1.44)"/><path class="cls-2" d="M108.64,45.49l-.3.15a3.53,3.53,0,0,1,.54-.13l.66-.13c.48-.36.55-.48.55-.56s-1.53.78-1.54.74Z" transform="translate(-2.03 -1.44)"/><path class="cls-2" d="M106.91,46.24c.17-.31.89-.71.33-.74-.91.38-.56.46-1.1.73,1.49-.62-.39.31.75,0a3.81,3.81,0,0,1-.82.35c.3-.06.58-.12.84-.19h0c-.07,0-.1,0,0,0l0,0a.21.21,0,0,1,0-.1c.45-.14.09,0,0,.1s0,0,0,0h0l1.47-.74A14.17,14.17,0,0,0,106.91,46.24Z" transform="translate(-2.03 -1.44)"/><path class="cls-2" d="M98.82,46.79c.05,0,.05,0,.06.05S99,46.79,98.82,46.79Z" transform="translate(-2.03 -1.44)"/><path class="cls-2" d="M99.48,46.89a.93.93,0,0,1-.58.13c-.33-.06,0-.11,0-.18-.22.06-.79.17-.07.27l.11,0c.64.07,1.49.21,1.38.27A2.19,2.19,0,0,0,99.48,46.89Z" transform="translate(-2.03 -1.44)"/><path class="cls-2" d="M103.21,46.77l.65-.19a3,3,0,0,0,.43-.16l.19-.07s-.69,0-.69,0l.06.1C103.1,46.56,103.29,46.66,103.21,46.77Z" transform="translate(-2.03 -1.44)"/><polygon class="cls-2" points="108.34 43.37 108.29 43.65 108.84 43 108.34 43.37"/><polygon class="cls-2" points="109.86 42.48 109.91 42.69 110.22 42.35 109.86 42.48"/><path class="cls-2" d="M90.75,10.75l-.28.24A2,2,0,0,0,90.75,10.75Z" transform="translate(-2.03 -1.44)"/><path class="cls-2" d="M93.07,9.55l0-.12C93,9.53,93,9.59,93.07,9.55Z" transform="translate(-2.03 -1.44)"/><path class="cls-2" d="M135.69,9.47c.41-.46.94-1,.7-1l-.27.09A3.69,3.69,0,0,1,135.69,9.47Z" transform="translate(-2.03 -1.44)"/><path class="cls-2" d="M115,6.13l.17.07c.13-.08.26-.15.37-.23A5,5,0,0,1,115,6.13Z" transform="translate(-2.03 -1.44)"/><path class="cls-2" d="M114.63,7.06l-.75-.13A6.48,6.48,0,0,0,114.63,7.06Z" transform="translate(-2.03 -1.44)"/><path class="cls-2" d="M81.9,21.77l0,.49C82.21,21.64,82,21.87,81.9,21.77Z" transform="translate(-2.03 -1.44)"/><path class="cls-2" d="M123.84,30.76a8.35,8.35,0,0,0,.69-1C124.14,30.21,123.75,30.54,123.84,30.76Z" transform="translate(-2.03 -1.44)"/><path class="cls-2" d="M90.52,8.15c-.21.15-.27.25-.24.29C90.48,8.27,90.59,8.18,90.52,8.15Z" transform="translate(-2.03 -1.44)"/><path class="cls-2" d="M125.18,28.5c-.06.06-.1.13-.16.2a6.43,6.43,0,0,1-.49,1.05A2.55,2.55,0,0,0,125.18,28.5Z" transform="translate(-2.03 -1.44)"/><path class="cls-2" d="M77.35,75.51s0,.09,0,.12S77.35,75.59,77.35,75.51Z" transform="translate(-2.03 -1.44)"/><path class="cls-2" d="M75.56,91.55a6.23,6.23,0,0,1,0-.65A3.06,3.06,0,0,0,75.56,91.55Z" transform="translate(-2.03 -1.44)"/><path class="cls-2" d="M117.58,39.67c-.25.28,0,.06,0,0Z" transform="translate(-2.03 -1.44)"/><path class="cls-2" d="M115.66,40.26a.22.22,0,0,0,0-.18A.24.24,0,0,1,115.66,40.26Z" transform="translate(-2.03 -1.44)"/><path class="cls-2" d="M125.56,24.66v0C125.48,24.71,125.5,24.7,125.56,24.66Z" transform="translate(-2.03 -1.44)"/><path class="cls-2" d="M117.1,40a3.07,3.07,0,0,0,.4-.29C117.43,39.75,117.32,39.84,117.1,40Z" transform="translate(-2.03 -1.44)"/><path class="cls-2" d="M117.23,40l-.25.21C117,40.29,117,40.28,117.23,40Z" transform="translate(-2.03 -1.44)"/><path class="cls-2" d="M117.94,39.29c-.15.16-.3.29-.44.42.06,0,.09-.06.08,0Z" transform="translate(-2.03 -1.44)"/><path class="cls-2" d="M76.51,46.15s0,.05,0,.07C76.57,46.59,76.56,46.43,76.51,46.15Z" transform="translate(-2.03 -1.44)"/><path class="cls-2" d="M134.18,4.23s0,0,0,0h-.06Z" transform="translate(-2.03 -1.44)"/><path class="cls-2" d="M133,4.75a1.87,1.87,0,0,1,1.19-.54l-.59-.49Z" transform="translate(-2.03 -1.44)"/><path class="cls-2" d="M86,14.82l.73-.48c-.47.95-1,1.46-.28,1-.23-.27.32-.88.87-1.49s1.19-1.12,1-1.43l.26-.13.27-.11c-.13.09-.13.14-.26.23a1,1,0,0,0,.73-.68,1.68,1.68,0,0,1,.22-.45,1.54,1.54,0,0,1,.63-.49c.45-.22.8-.31.55-.07l.43-.35.29-.25.14-.1c.3-.13.29,0,0,.14l1.49-.79v0a5.34,5.34,0,0,1,.85-.71c.44-.06-.18.14,0,.19l.83-.49c.41,0-.26.47-.87.67a.86.86,0,0,0,1-.12,2.69,2.69,0,0,1,1.63-.47l-.82.31a2,2,0,0,0,1,0l.58-.09a4,4,0,0,1,.69,0c-.12,0-.65-.13-1-.18s-.58-.18-.11-.4A3.58,3.58,0,0,0,98,7.89c.05.24.56.08,1.22,0v.33l.15-.05.16,0c.51-.2.47-.34.82-.54.79-.12,1,.1,1.19.29,1.29-.06-.94-.33.58-.52a7.81,7.81,0,0,0,1.48-.11c.49-.06,1-.15,1.67-.26.77.09-.13.2.14.29l.34-.14.35-.13c.17,0,.11.09.09.13.58-.09,0-.33,1-.4.25-.36,1.87.56,3,.19.28.11-.14.2-.05.33a16.57,16.57,0,0,0,2.67-.5l.55.11.56.1c-.82-.24.23-.54,1.12-.8-.29-.11-.53-.21-.7-.26l.72-.1c.36,0,.71-.12.71-.12.17,0,0,.17-.19.32l.26-.1c.52.09.27.29-.1.5a4.68,4.68,0,0,1-.53-.17c-.35.2-.68.43-.6.62a1.77,1.77,0,0,1,.47-.1c-.09.06-.15.11-.1.14s.2,0,.43-.13l.36.34.07-.15,2,.09.09,0h-.12c.68-.2,1.3-.44,2-.65a16.19,16.19,0,0,1,2.57-.62c-.51.31-.08.44-.07.76a2.09,2.09,0,0,0-1.21,0,5.91,5.91,0,0,1-1.61.23c.6,0,.47.18.33.23l.31,0,.69-.16,1-.23c0,.25.44.17,1,.21-.45-.46,1.46-.52,2.24-.8.08.17-.09.38-1.09.46,1.16.25,1.32-.8,2.43-.66-.23,0-.37,0-.45.15.54-.24,1.92-.38,1.63-.18l-.24.06a23.38,23.38,0,0,0,3-.71c1-.32,1.84-.65,1.89-.9a1.79,1.79,0,0,1-.13.67l1.18-1.1L134,3l.35-.35c-.13.43,1.06,1-.15,1.6a4.94,4.94,0,0,0,1.59-.52c-.27,0-.79-.32-.46-.46a4.15,4.15,0,0,0,1.25,0l-1-.82a6.08,6.08,0,0,0-.3.62c.13-.35.65.12.55.72-.07-.1-.57,0-.61-.27l.06.24c0,.14.06.34.09.53l.12.79c0-.39-.45-.18-.69.09.14-.12-.35,1.2-.46,1.58l.18-.27c.08-.13.15-.27.15-.27a3,3,0,0,0-.21,1.69,3,3,0,0,1-.31,1.71c0-.24-.44-.76-.88,0a6.52,6.52,0,0,1-.07,3.66l-.3.17-.21.56c-.11.27-.21.55-.21.55,0-.85.19-3.09.36-4.21-.42.5-.26.07-.69.91-.3.21,0-.57.15-.82l-.56.94-.59.93c.36.09-.56,1.64-.27,1.71l.47-1.13.44-1.13c.35.08.17,1.7-.72,3-.33.28-.36-.57-.48-.6a4.79,4.79,0,0,1-.75,1.48l.2-.67c-.57.68-.38,1.46-1.22,2.2-.21.3-1,.7-.82.86.65-.31,1.75.24,1.78.73a21,21,0,0,1-1.71,1.71c-.57.37-.16-1.16-.65-.85.07.06,0,.42-.05.56-.27.29-.16-.29-.56.46.22.29-.88,1.49,0,.5-.32.77-.51.72-1,1.6.34-.16.26,1.12,0,1.91-.06-.09-.25,0-.33.08-.79,1.5-1.32,2.24-2,3.64-.14.09-.58.71-.56.35a2.71,2.71,0,0,1-.27.9c-.7.68.47-1-.19-.52.16.16-.34,1.23-.57,1.89.38,0,.83-1.36,1-2,.39.2.24,1.48-.43,3-.58,1.2-.53.35-.59.58a6.24,6.24,0,0,0-1,2.06,3.27,3.27,0,0,1-1,1.66c-.73.48-.45-.3-.72-.28.56-.91,1.12-1.21,1.52-1.82l-.62.66a4.2,4.2,0,0,1,.75-1.24,19.62,19.62,0,0,0-1.6,2,16.29,16.29,0,0,1-2.35,2.54c-.17.3-.51.78-.24.67l.39-.46c.55-.24-.58,1,0,.55a8.89,8.89,0,0,1-.78,1.09,5.39,5.39,0,0,1-.52.56,5.17,5.17,0,0,1-.66.5l-.36-.1a1.9,1.9,0,0,0,.89-.62c-.29.42-1.62.8-1.8,1.42l.78-.31c-.28.31-.58.68-.93,1l-.13.13-.06.07-.06,0h0l0,0,0,0-.29.22a4.18,4.18,0,0,1-.63.4c.55,0,.17-.16,1-.22-.19,0-.15-.11,0-.23l.72-.55c.5-.36,1-.7.4-.58a2.34,2.34,0,0,0,1-.44,6.69,6.69,0,0,1,1.11-.64c-.09,0-.39.1.3-.46a.64.64,0,0,1,.08-.2l0,0,0,0s0,0,0,0a1.3,1.3,0,0,1-.43.19c.17-.46,1.14-1.43,1.37-1.86s0,.25.22.11l.32-.64c.22.1,1.21-.79.5.22,0,0,.19-.2.36-.41l.36-.43a5.56,5.56,0,0,0,1.34-1.61c.34-.4.53-1.22.43-.75,0,0,.22-.37.42-.75l.39-.76.06,0c.92-1.43,1.41-3.17,2.64-4.66a11,11,0,0,1,.87-1.87l.26-.07c.25-.66,1.13-1.81,1.08-2.18a4.46,4.46,0,0,0,1.22-1.72,19,19,0,0,1,1.19-2.15l-.2-.18a26.7,26.7,0,0,0,1.3-2.4l-.23-.07a38.2,38.2,0,0,1,2.13-3.18c0,.13-.19.44-.37.63,1.36-1.23,1.56-3.38,2.61-4.64a2.33,2.33,0,0,1,.43-.88l0,.09.08-.14c.11-.15.22-.3.33-.47a4.5,4.5,0,0,0-.3.38,10.89,10.89,0,0,0,.42-1.18l.31-.09,0-.11c.25-.4,0-.39-.24-.22a4.28,4.28,0,0,0,.08-.64c.25-.1.33-.4.4-.72a1.24,1.24,0,0,1,.42-.84,1.42,1.42,0,0,1,0-.52c0-.24.06-.54.09-.83.08-.58,0-1.17-.15-1.32.06,0,.1-.14.07.11a6.86,6.86,0,0,0,.18-1l.1-1.08-1,.37a2.43,2.43,0,0,0-.46.22l-.3-.23-.9.73c-.69,0-1,0-.43-.44-1.4.81-1.18.49-2.37,1.22V3.1c-.46.14-1.14.58-1.46.49a6.53,6.53,0,0,0-1.33.14c-.58.1-1.28.24-2,.4s-1.56.26-2.35.37-1.57.13-2.25.12c.58.55-1.29-.17-1.35.3-.17-.12-.56-.17-.13-.33a6.57,6.57,0,0,1-1.67.07,2.93,2.93,0,0,0-1.35.22c-.16-.14.29-.22.15-.3a.56.56,0,0,1-.18,0h-.14a.59.59,0,0,1-.39,0c-.15-.07.16-.13.37-.2h0c-1.36.12-1.47.56-1.55,1a2.1,2.1,0,0,0-1.61.16c-.25-.13-.67-.26.21-.32-.25,0-1,0-1.72,0s-1.36,0-1.39.17a2,2,0,0,0-.84,0c-1.13-.05-1.23-.09-2.35-.09l.31.07c-.45.37-.94.06-1.84.09l0,0a3.93,3.93,0,0,0-1.48-.08,4.85,4.85,0,0,1-1.48-.08l.12.24c-.08.27-.54.19-1.13.14a4.73,4.73,0,0,0-1.91,0l.23,0,.22,0c-.58.24-1.82-.33-2.56-.33l.13,0h-.1c-.08,0,0,0,.09-.07l-.14,0,.34-.11h-.36l.14,0c-1.22.06.07.38-1.11.66-.27-.12.23-.49-.66-.36a1.72,1.72,0,0,0-.6.14l-.93.42a9.9,9.9,0,0,1-1.07.42,4,4,0,0,1-1,.28c.3,0,.59.07,0,.37s-1.08.26-1.67.48a3,3,0,0,0-1.44.82c-.12,0-.18,0-.2,0-.28.23-.76.58-1.19.91a3.47,3.47,0,0,0-.89.94,1.25,1.25,0,0,0-1,.33,9.71,9.71,0,0,0-1,1.07c-.36.37-.65.77-.9,1s-.46.38-.6.25l-.23.25c-.14.15-.31.37-.48.59l-.67.87,0-.09a4.67,4.67,0,0,0-.53.72,4,4,0,0,0-.3.57,4.22,4.22,0,0,0-.27.84c-.22.24-.15,0-.17,0a13.65,13.65,0,0,0-1.13,1.77,12.94,12.94,0,0,0-.51,1.8l-.31.05A10.44,10.44,0,0,1,79.2,22a13.22,13.22,0,0,0-.6,1.36,6.7,6.7,0,0,0-.42,1.48s-.05-.08,0-.24a9.83,9.83,0,0,1-.51,1.72c-.19.58-.42,1.16-.62,1.71-.37,1.1-.6,2.06-.24,2.55l0,1.47c.43-1.83.34.35.64-.38-.09.73-.62,1.82-.51.92l.07-.13c-.43-.42-.55,2.27-.86,2.17-.53,3.66-1.08,7.24-1.27,10.69l.39-.38-.08,1.21c-.1.31-.31.41-.26-.45a2,2,0,0,0,.2,1.47c-.21,1.68-.41-.67-.44-.15v.7l.05-.16a3.9,3.9,0,0,1,.25,1.66c-.09.65-.24.33-.26.59,0,0,0,.08,0,.39l-.06,1.52.31-.6c.13.67,0,1.42.31.72-.55,1-.22,5.65-.38,6.27a12,12,0,0,1,.2,3c.06-.29.39-.46.35.53-.69-.36-.29,1.81-.76,2.62.31-.72.11,2.82.56,1.69,0,.83-.25,0-.4.68.32,2,0,4.35.17,6.77.09,0,.21-.37.36.14l-.39,1.3c.07.48.54.42.27,1.31.07-.13.18-.32.22,0-.1,2.38.1,4.8.23,7.23a30.62,30.62,0,0,1-.27,7.23c.18-.64.2-.21.2.29,0-.32.22,0,.35-.05l-.18,1c-.09.49-.2,1-.2,1,.32.38-.07,2.16.25,2.38l0-.64c.35.87.9-1.15,1.38-1a3.4,3.4,0,0,1,.14-1.8,4,4,0,0,0,0-2.29c.1-.35.16.3.27.11a3.07,3.07,0,0,1-.15-1.78l.05.1c-.12-2.5.1-3.58.11-6.39l-.24.22a4.27,4.27,0,0,1,.13-1c-.4-.67,0,1.69-.38,1.08.46-.82-.18-4.24.35-4.81,0-.92-.27.29-.31-.64l.14-.25-.2-.22c0-.61.17-.93.3-1a4.1,4.1,0,0,0,.08.57A17.37,17.37,0,0,0,77.23,73l0,.89c-.27-2.52-.19-5.59-.54-8l-.12.19c-.23-1.85.11-1.49,0-3.52l0,.07a5.3,5.3,0,0,1-.16-1.51c.13.51.26-1,.41-.3-.23-2-.18-1-.61-2.33l.19-.31A3.07,3.07,0,0,1,76,56.69c.17.84.29-.65.51.29.41-2.14-.41-3.18.2-4.16-.52-1-.3,1.85-.41,1.3-.18.46-.39-.81-.33-1.49s.68-1.15.71-2.86c0,.17,0,.18,0,.35.15-.64-.16-1.26.09-2-.31-.45,0-1-.35-1.16l0,1.57a8.2,8.2,0,0,1-.22-3.21,3.63,3.63,0,0,1,.2.87c.14-.43,0-.83.11-1.27.39.14,0,1.91.27,2.88.19-.46-.22-1.82.2-1.32-.53-.71.15-1.68-.21-2.86l.24.09a3.62,3.62,0,0,1-.09-.9l.28.63c-.21-1,.35-1.79.29-2.68-.16,1.86-.33.39-.57,1.17-.12-2.34.72-1.28.88-3.85,0,.35-.28,1.28-.34.73A6.79,6.79,0,0,1,78,37.36c.18-1.69-.28.23-.34-.51.38-.54,0-.84,0-1.61l.25,0c.46-1.9-.43-.6,0-2.3l.22.79,0-.46c0-.23,0-.46,0-.46l.24.24a5.87,5.87,0,0,1,.36-2.25c-.22.19-.41-.21-.23-1.06.28-.54.16.37.4-.82a1.06,1.06,0,0,1-.13,1.1c.07.07.09.3.16.37a9.83,9.83,0,0,0,.5-1.95,2.82,2.82,0,0,1-.18.44l.12-1.79c.17-.24.18,0,.19.22a7.49,7.49,0,0,1,.17-1.12c.15.19.35.21.23.95l0-.26c0-.16.06-.37.1-.57l.14-.83c.12-.08.49-.73.49-.51a5.81,5.81,0,0,0,.44-1.56,5.67,5.67,0,0,1,.61-1.73,1.13,1.13,0,0,1,.08-.46c.27-.5.58-.94.86-1.43a8.84,8.84,0,0,0,.8-1.63L84,18l.36-.22c.52-.9-.95.61-.09-.91.61-1.1.51-.22.85-.5a4.22,4.22,0,0,1,1.6-2.28A8.18,8.18,0,0,1,86,14.82ZM96.75,8.2c-.23.11-.67.4-.88.31C96.07,8.16,96.32,8.23,96.75,8.2ZM117,6.48a1.41,1.41,0,0,1-.85,0A3,3,0,0,1,117,6.48Zm3.12,30a0,0,0,0,1,0,0C120.6,36,120.45,36.15,120.16,36.46Zm-.88.92c0,.12,0,.13,0,.11a1.58,1.58,0,0,1,.4-.57C119.61,37,119.48,37.05,119.28,37.38ZM74.73,49.93l.07-.23C74.86,50.24,74.8,50.09,74.73,49.93Z" transform="translate(-2.03 -1.44)"/><path class="cls-2" d="M114.68,7a.21.21,0,0,1-.11-.13C114.46,6.86,114.46,6.91,114.68,7Z" transform="translate(-2.03 -1.44)"/><path class="cls-2" d="M81.9,21.68l0,0a.08.08,0,0,0,0,.05Z" transform="translate(-2.03 -1.44)"/><path class="cls-2" d="M127,19.9a1.37,1.37,0,0,1,.36-.35C127.35,19.5,127.25,19.58,127,19.9Z" transform="translate(-2.03 -1.44)"/><path class="cls-2" d="M114.69,42.31,115,42l.3-.28a1.87,1.87,0,0,1-.63.39S114.9,42.16,114.69,42.31Z" transform="translate(-2.03 -1.44)"/><path class="cls-2" d="M108,44.5c-.09.07-.22.1-.31.17l.07.09C108.16,44.57,108.43,44.35,108,44.5Z" transform="translate(-2.03 -1.44)"/><path class="cls-2" d="M113.61,42.1c-.09-.07-.22,0-.39.1l-.16.11-.14.1-.32.23.08,0c0,.17.12.15.29,0a3.39,3.39,0,0,0,.29-.21l0,0h0l0,0,0,0,.08-.07Z" transform="translate(-2.03 -1.44)"/><path class="cls-2" d="M112.49,42.72l-.42.27C112.07,43.12,112.25,42.9,112.49,42.72Z" transform="translate(-2.03 -1.44)"/><path class="cls-2" d="M118.32,38.67c-.22.16.08.31-.09.36C118.23,39.44,119.21,37.47,118.32,38.67Z" transform="translate(-2.03 -1.44)"/><path class="cls-2" d="M112.85,41.8a2.81,2.81,0,0,0,.31.1l.12-.35S112.85,41.81,112.85,41.8Z" transform="translate(-2.03 -1.44)"/><path class="cls-2" d="M116.32,39.22l-.7.54s0,.12-.11.22C115.91,39.62,116.39,39.26,116.32,39.22Z" transform="translate(-2.03 -1.44)"/><path class="cls-2" d="M115.51,40a4.33,4.33,0,0,0-.52.49A4.5,4.5,0,0,0,115.51,40Z" transform="translate(-2.03 -1.44)"/><path class="cls-2" d="M113.76,41l.24-.11a2.46,2.46,0,0,0,.25-.18l.24-.19-.36.25Z" transform="translate(-2.03 -1.44)"/><path class="cls-2" d="M122.12,31.81l.21-.43.2-.43c0-.13-.2.07-.35.4S122,31.9,122.12,31.81Z" transform="translate(-2.03 -1.44)"/><path class="cls-2" d="M120,33.86a.91.91,0,0,1,.39-.23l-.24-.2Z" transform="translate(-2.03 -1.44)"/><path class="cls-2" d="M121.39,31.51c0-.13.48-1.31-.11-.27C121.31,31.36,120.89,32.21,121.39,31.51Z" transform="translate(-2.03 -1.44)"/><polygon class="cls-2" points="126.53 17.65 126.4 17.86 126.87 18.1 126.53 17.65"/><path class="cls-2" d="M133.59,7.63c-.54.94.19.37-.34,1.2,0,.29.44-.68.43-.4C133.82,7.77,134,7.49,133.59,7.63Z" transform="translate(-2.03 -1.44)"/><path class="cls-2" d="M133.68,8.43l-.06.34A1.37,1.37,0,0,0,133.68,8.43Z" transform="translate(-2.03 -1.44)"/><polygon class="cls-2" points="73.16 92.75 73.02 93.47 73.22 93 73.16 92.75"/><path class="cls-2" d="M75.52,95.59l-.34.16.28.45A1.34,1.34,0,0,1,75.52,95.59Z" transform="translate(-2.03 -1.44)"/><path class="cls-2" d="M98.75,8.48l0-.09a1.11,1.11,0,0,0-.59,0Z" transform="translate(-2.03 -1.44)"/><path class="cls-2" d="M90.2,11.47l.13-.07-.2-.05-.21,0Z" transform="translate(-2.03 -1.44)"/><path class="cls-2" d="M85.08,17.08a7.33,7.33,0,0,1,.55-.82C85.24,16.81,84.73,16.94,85.08,17.08Z" transform="translate(-2.03 -1.44)"/><path class="cls-2" d="M106.92,21.62s-.13-.16-.15-.19S107,21.65,106.92,21.62Z" transform="translate(-2.03 -1.44)"/><polygon class="cls-2" points="104.64 21.1 104.59 21.03 104.65 21.27 104.64 21.1"/><path class="cls-2" d="M106.09,23.09c.31.23.18-.24.36-.24l.08,0-.16-.26C106.28,22.78,106.26,23.1,106.09,23.09Z" transform="translate(-2.03 -1.44)"/><path class="cls-2" d="M105.26,22.75c.11.1,0,.15.1,0l0,0A.15.15,0,0,1,105.26,22.75Z" transform="translate(-2.03 -1.44)"/><path class="cls-2" d="M105.32,22.71c.06-.06-.12-.06,0,0Z" transform="translate(-2.03 -1.44)"/><path class="cls-2" d="M105.09,23v-.17c-.07-.05-.16,0-.17-.08C104.88,22.89,105,22.94,105.09,23Z" transform="translate(-2.03 -1.44)"/><path class="cls-2" d="M105.17,23.28V23.2S105.14,23.18,105.17,23.28Z" transform="translate(-2.03 -1.44)"/><path class="cls-2" d="M105.2,23l0,.16s.13.13,0-.06C105.26,23.23,105.21,23.13,105.2,23Z" transform="translate(-2.03 -1.44)"/><path class="cls-2" d="M105.29,23c.1,0,.19,0,.19.18C105.61,23.05,105.42,22.87,105.29,23Z" transform="translate(-2.03 -1.44)"/><path class="cls-2" d="M106.31,23.4l.14,0,0-.14C106.44,23.36,106.23,23.32,106.31,23.4Z" transform="translate(-2.03 -1.44)"/><path class="cls-2" d="M104.46,23.27a1.52,1.52,0,0,0,.22.22v-.12A.36.36,0,0,1,104.46,23.27Z" transform="translate(-2.03 -1.44)"/><path class="cls-2" d="M104.68,23.49l0,.18C104.76,23.62,104.74,23.56,104.68,23.49Z" transform="translate(-2.03 -1.44)"/><polygon class="cls-2" points="103.39 22.17 103.36 21.82 103.36 22.2 103.39 22.17"/><polygon class="cls-2" points="102.06 22.07 102.01 21.89 102.07 22.18 102.06 22.07"/><path class="cls-2" d="M103.86,23.71c0-.15-.2-.17-.21-.28a.61.61,0,0,0,0,.34C103.65,23.68,103.72,23.66,103.86,23.71Z" transform="translate(-2.03 -1.44)"/><path class="cls-2" d="M103.64,24a.72.72,0,0,0,0-.2A.47.47,0,0,0,103.64,24Z" transform="translate(-2.03 -1.44)"/><path class="cls-2" d="M104.47,23.75a.42.42,0,0,0-.21-.13l.17.15Z" transform="translate(-2.03 -1.44)"/><path class="cls-2" d="M104.44,23.78h0l-.09.05Z" transform="translate(-2.03 -1.44)"/><path class="cls-2" d="M104.48,23.75h0S104.49,23.77,104.48,23.75Z" transform="translate(-2.03 -1.44)"/><path class="cls-2" d="M105,23.65c0,.15,0,.35.21.4C105.2,23.9,105.07,23.87,105,23.65Z" transform="translate(-2.03 -1.44)"/><path class="cls-2" d="M104.69,23.93l.14,0a.35.35,0,0,1-.12-.17Z" transform="translate(-2.03 -1.44)"/><polygon class="cls-2" points="102.65 22.59 102.66 22.49 102.61 22.51 102.65 22.59"/><path class="cls-2" d="M103.93,24a.22.22,0,0,1-.09.2.38.38,0,0,0,.22-.07C104,24.09,104,24,103.93,24Z" transform="translate(-2.03 -1.44)"/><path class="cls-2" d="M104.18,23.92v0S104.21,24,104.18,23.92Z" transform="translate(-2.03 -1.44)"/><polygon class="cls-2" points="101.25 23.14 101.28 23.17 101.26 23.14 101.25 23.14"/><path class="cls-2" d="M104.09,24.18c.07,0,.07-.06.06-.13a.22.22,0,0,1-.09.1S104.09,24.2,104.09,24.18Z" transform="translate(-2.03 -1.44)"/><path class="cls-2" d="M103.54,24.16l.14.05C103.62,24.17,103.52,24.11,103.54,24.16Z" transform="translate(-2.03 -1.44)"/><path class="cls-2" d="M104.13,23.9h0S104.11,23.87,104.13,23.9Z" transform="translate(-2.03 -1.44)"/><path class="cls-2" d="M104.13,23.9a.89.89,0,0,0,0,.15.2.2,0,0,0,0-.11Z" transform="translate(-2.03 -1.44)"/><path class="cls-2" d="M103.82,25.89c-.09-.18-.06-.41.17-.29,0-.2-.4-.72-.68-1a.36.36,0,0,1,0,.32c.1.07.39.07.39.28s-.16,0-.29,0c.19.19,0,.43.22.73l.06-.19C103.76,25.76,103.76,25.87,103.82,25.89Z" transform="translate(-2.03 -1.44)"/><path class="cls-2" d="M103.53,24.51l0-.05a.73.73,0,0,1-.3-.14.41.41,0,0,0,0,.26l.24-.11Z" transform="translate(-2.03 -1.44)"/><path class="cls-2" d="M103.75,24.33c.09.2,0,.36.23.51.12-.1,0-.21,0-.35-.18.19,0-.14-.22-.14a.32.32,0,0,1,.07-.13.45.45,0,0,1-.16,0h0l0,0h0a.3.3,0,0,1,0,.08c-.08,0,0,0,0-.08v0h0l-.14.24C103.62,24.46,103.67,24.41,103.75,24.33Z" transform="translate(-2.03 -1.44)"/><path class="cls-2" d="M105.43,24.52a.08.08,0,0,1,0,0S105.4,24.53,105.43,24.52Z" transform="translate(-2.03 -1.44)"/><path class="cls-2" d="M105.26,24.47s0-.11,0-.13.06.09.1.14,0-.2-.14-.22v0a.78.78,0,0,1-.41-.19A2.36,2.36,0,0,0,105.26,24.47Z" transform="translate(-2.03 -1.44)"/><path class="cls-2" d="M104.52,24.46l-.11.21.19.09-.07-.09C104.66,24.64,104.56,24.54,104.52,24.46Z" transform="translate(-2.03 -1.44)"/><polygon class="cls-2" points="101.17 23.06 101.08 22.85 101.14 23.19 101.17 23.06"/><polygon class="cls-2" points="100.96 23.22 100.86 23.04 100.86 23.18 100.96 23.22"/><path class="cls-2" d="M90,33.62l0,.09A.37.37,0,0,0,90,33.62Z" transform="translate(-2.03 -1.44)"/><path class="cls-2" d="M90.32,33.39l0-.09C90.29,33.36,90.31,33.4,90.32,33.39Z" transform="translate(-2.03 -1.44)"/><path class="cls-2" d="M96.86,27.48c-.15-.14-.36-.37-.26-.16l.11.19A.11.11,0,0,1,96.86,27.48Z" transform="translate(-2.03 -1.44)"/><path class="cls-2" d="M93,30.55l.05.05,0-.21Z" transform="translate(-2.03 -1.44)"/><path class="cls-2" d="M93.29,31.41l-.16-.07A.39.39,0,0,0,93.29,31.41Z" transform="translate(-2.03 -1.44)"/><path class="cls-2" d="M88.32,35.27l.11.22C88.51,35.4,88.39,35.36,88.32,35.27Z" transform="translate(-2.03 -1.44)"/><path class="cls-2" d="M100.56,26a.38.38,0,0,0-.23-.05C100.47,26,100.62,26.19,100.56,26Z" transform="translate(-2.03 -1.44)"/><path class="cls-2" d="M88.75,31.59a.19.19,0,0,0,0,.15A.16.16,0,0,0,88.75,31.59Z" transform="translate(-2.03 -1.44)"/><path class="cls-2" d="M100.12,26.06l.06,0a.27.27,0,0,1,.15-.13C100.23,25.91,100.13,25.88,100.12,26.06Z" transform="translate(-2.03 -1.44)"/><path class="cls-2" d="M83,42.09h0S83,42.1,83,42.09Z" transform="translate(-2.03 -1.44)"/><path class="cls-2" d="M80.11,44a.34.34,0,0,1,0-.14A.15.15,0,0,0,80.11,44Z" transform="translate(-2.03 -1.44)"/><path class="cls-2" d="M102,25.1s0,0,0,0Z" transform="translate(-2.03 -1.44)"/><path class="cls-2" d="M102.66,25.75a.26.26,0,0,0,0,.1A.19.19,0,0,1,102.66,25.75Z" transform="translate(-2.03 -1.44)"/><path class="cls-2" d="M100.14,27.56h0S100.17,27.59,100.14,27.56Z" transform="translate(-2.03 -1.44)"/><path class="cls-2" d="M102.12,25.15l-.09,0Z" transform="translate(-2.03 -1.44)"/><path class="cls-2" d="M102.06,25.07h.06S102.09,25,102.06,25.07Z" transform="translate(-2.03 -1.44)"/><path class="cls-2" d="M101.93,25.15a.16.16,0,0,1,.1,0l0,0Z" transform="translate(-2.03 -1.44)"/><path class="cls-2" d="M85,37.8h0C85,37.9,85,37.87,85,37.8Z" transform="translate(-2.03 -1.44)"/><polygon class="cls-2" points="94.23 28.77 94.24 28.75 94.23 28.75 94.23 28.77"/><path class="cls-2" d="M96.12,30.44c0-.29,0-.28.13-.25l-.3-.57Z" transform="translate(-2.03 -1.44)"/><path class="cls-2" d="M89.19,34.29l.23.06c.09.36-.07.34.21.48-.43-.55.33-.37-.07-.93l.15.06s0,0,0,0c.33.17-.2-.48.06-.53.1,0,.2.05.21.14l.05-.24s.11.09.06.11l.2-.21v0a1.89,1.89,0,0,1,0-.39c.11.05,0,.08.07.15l0-.23c.15.11.14.33,0,.37.5.5,0-.22.49-.05l-.07.15c.29.28.3.1.57.23-.1-.1-.6-.36-.56-.59.07,0,.14,0,.15-.16.13.21.17.12.26,0l.16.28c.06-.14,0-.28-.05-.44s.28.17.42.34c.21-.07-.33-.28-.14-.46.21,0,.25-.16.35-.44.16,0,.07.18.16.24l0-.28s.06.07.07.11c0-.13-.14-.29-.05-.44-.13-.34.52.33.5-.12.08.06.07.19.14.3a2.13,2.13,0,0,0,.13-.7l.26.12c-.23-.16-.21-.5-.17-.79l-.22-.19.14-.26c.05,0,.08.15.1.29a.22.22,0,0,1,0-.09c.13.07.17.26.19.45L93,30.6a1.9,1.9,0,0,0,.17.6.2.2,0,0,1,0-.11.25.25,0,0,0,.05.13s0,0,0-.14l.2.31,0-.14.38.08c0-.42,0-1,.27-1.28a2.38,2.38,0,0,0,.28.7c-.22-.27-.19.24-.38.25.1,0,.14.14.14.2l.17-.41c.1.24.14.15.26.21-.26-.44.09-.41.15-.6.07.15.11.32,0,.35.31.28,0-.64.27-.41,0,0-.07,0,0,.09a.15.15,0,0,1,.29,0l0,0c.26-.05.74-.31.61-.73a5.87,5.87,0,0,1,.19.59l-.11-1.54c.1.37.58,1.14.45,1.41.08,0,.18.06.25-.11s-.3-.47-.26-.52c.31.33.19.17.51.42-.09-.05-.24-.62-.14-.64a5.53,5.53,0,0,1,.21.61l0-.63a1.18,1.18,0,0,0,.29.58c-.07-.09.2-.07.25-.14l-.15-.09c.3,0,0-.86.24-.93,0,.12.19.71.35.72a5.31,5.31,0,0,1-.09-1.73l.1.14.11-.25a11.72,11.72,0,0,1,0,1.86c.15.08.1.17.24.09a.2.2,0,0,1,0,.29l.39-.05c-.15-.31.14-.43,0-.69l-.25.49c-.14-.32-.14-1,.13-1,.11.1.18.59.23.69,0-.12.15-.3.2-.23l0,.21c.18.07,0-.52.34-.28.07,0,.34.34.28.15a7.26,7.26,0,0,1-.77-1.74,2.85,2.85,0,0,1,.57.37c.22.25.14.74.33,1a.49.49,0,0,1,0-.26c.09.05.08.28.2.19-.11-.34.28-.09,0-.3.09-.15.16,0,.31-.07a1.27,1.27,0,0,1-.08-.91.85.85,0,0,0,.13.22c.27-.08.48,0,.72-.1,0,.06.21.1.23.26,0-.07,0-.19.06-.23.27.21-.15.12.11.4-.07-.19.08-.35.13-.51-.16-.27-.27.06-.32.22a1.43,1.43,0,0,1,0-1.18c.15-.18.2.22.21.14.4-.11,0-.83.41-.7.24.19.25.49.36.66-.11.17-.32,0-.42,0l.19.06c0,.1-.08.22-.18.18.21.17.64-.27,1-.21,0-.11,0-.24,0-.31l-.07.07c-.19-.15,0-.35-.14-.39,0-.19.06-.48.28-.46l.18.26c0-.08-.2-.11-.2,0,0-.16.46.23.33-.17l-.22-.12c0-.21,0-.58.2-.57-.22-.23,0,.05-.3-.21.31.34-.36.19,0,.52-.3-.31-.26-.05-.56-.29,0,.09.14.15,0,.16s0,.07,0,.1h0l.14.11c0,.24-.15.33-.16.48-.09,0,0-.12-.11-.2l0,.21c-.11-.2-.36-.24-.25-.45l-.16.07c-.15-.07-.29-.06-.32.07s-.07.32-.09.12l-.17.25,0-.05c-.25.09-.34.57-.79.32a.29.29,0,0,1-.27.19l-.11-.17c-.08.11-.39,0-.35.17-.33-.45-.57.1-.79.09l.09.25c-.14,0-.23.16-.35.32l.09.21c-.07.23-.42,0-.64.11,0-.09.05-.09.11-.06-.46-.38-.42.57-.81.32,0,.1-.08.09-.14.05a0,0,0,0,0,0,0h0l-.13-.08a.36.36,0,0,0,.12.09.34.34,0,0,0-.15.16l-.12-.22h0c-.1-.05,0,.13.09.29a.52.52,0,0,0,0,.18c-.21-.35-.14.2-.37-.17,0,.21-.3.29-.17.71,0-.06-.06-.07,0-.09s-.19,0-.22.11l-.15-.28v.46a.48.48,0,0,1-.25-.49c-.11.45-.15.21-.22.64l-.07-.19c-.07,0-.09.34-.19.2-.32-.28-.86.29-1.44.16.33.51-.3-.16-.14.27-.08-.11-.17-.16-.15-.3-.17.22-.43-.06-.42.37-.08-.12,0-.21-.1-.28s0,.14-.07.08,0-.13,0-.2c-.22.13-.06.53.1.91-.2-.12-.24-.08-.21.21-.1-.1-.22-.2-.1-.31-.09,0-.57.06-.43.36-.06-.06-.12,0-.12.08a1.22,1.22,0,0,0-.37.16l.07,0c.12.38-.1.15-.21.26l0,0c-.44-.09-.07.19-.52.07l.13.21c.23.48-.42-.12-.49.16l.13.08c0,.21-.63-.46-.77-.46s0-.08,0-.13c-.42-.12.13.3,0,.47-.12-.13-.18-.4-.33-.35s-.07.7-.41.54c.11.09.22.17.19.32s-.64-.18-.52.25a.29.29,0,0,1-.08-.07c0,.15-.22.36-.14.59-.3-.32-.39-.11-.46.09s-.12.39-.36.09l-.27.27,0-.06c-.22.11-.16.31-.1.5-.08,0-.1-.08-.12-.12-.39.11-.37.17-.3.64l-.2-.16c0,.15-.62.05-.64.49a.39.39,0,0,1-.06-.11c0,.45-1.14.15-.57.89v.34c.27-.19.26.31.46.32,0,.12-.42,0-.35-.1h0c-.32-.37-.39.18-.63-.05-.4.49-1,.79-1.39,1.25l.34.18-.14.15c-.1,0-.28-.12-.18-.23-.21-.07,0,.3.06.35-.3.14-.28-.35-.34-.29l-.06.12h.06c.06.17.18.28.06.41s-.22-.09-.25-.07,0,0,0,0l-.18.2.3.09c0,.17-.16.18.18.28-.52-.16-.7.69-.89.69a.46.46,0,0,1-.12.54c.08,0,.37.14.25.26-.55-.41-.41.11-.91,0,.35.06-.18.46.33.53-.12.09-.23-.12-.43-.11.08.43-.52.59-.62,1,.08,0,.23,0,.32.18h-.51c0,.1.44.28.09.3.08,0,.2,0,.2.09a1.85,1.85,0,0,0-.54,1.17,3,3,0,0,1-.2.64,2.32,2.32,0,0,1-.49.64c.19-.11.19,0,.19.08,0-.06.22,0,.34,0l-.39.36c.33.08,0,.36.32.41l0-.11c.37.17.86-.15,1.35-.1-.21-.09,0-.2.11-.27s.28-.16,0-.32c.11,0,.15.06.27.06-.2-.09-.24-.16-.11-.28l0,0c0-.38.28-.48.55-.83l-.24,0a.36.36,0,0,1,.21-.09c-.31-.22-.1.24-.45,0,.49,0,.24-.63.79-.49.06-.13-.27-.07-.22-.2l.16,0L82.63,42c.07-.07.27,0,.38,0s0,.07,0,.1c.21,0,.09-.34.16-.35l-.14.08c0-.41.44-.74.35-1.23l-.11,0c0-.36.23-.14.31-.47l0,0a.24.24,0,0,1,0-.29c.07.14.31,0,.37.18,0-.4-.06-.23-.3-.65l.18.07c-.1-.16-.18-.22-.12-.38,0,.2.3.07.39.32.54,0-.05-.66.53-.45-.34-.43-.4.08-.45-.06s-.24-.33-.14-.39.66.24.82,0c0,0,0,0,0,.06.17,0,0-.27.22-.24-.21-.25.12-.12-.19-.38l-.08.26c0-.18-.29-.58,0-.63a1,1,0,0,1,.11.26c.14,0,0-.15.16-.13.31.26-.12.3,0,.61.19,0,0-.41.25-.08-.37-.43.22-.17,0-.59l.18.17c0-.05-.06-.17,0-.21l.18.27c-.11-.28.37-.07.35-.27-.19.23-.27-.14-.49-.15,0-.5.62.23.8-.15,0,.06-.24.06-.27-.08a.69.69,0,0,1,.35,0c.15-.24-.21-.13-.25-.31.29.12,0-.19,0-.34l.19.16c.32-.13-.33-.41,0-.49l.18.32,0-.17.19.22c0-.26,0-.27.19-.32-.15-.1-.31-.33-.22-.43s.13.2.24,0c.08.14.19.31,0,.21,0,.07.08.14.13.2s.2-.15.25-.2a.13.13,0,0,1-.09,0s0-.11,0-.22a1.32,1.32,0,0,1,0-.22.23.23,0,0,1,.15.19c0-.06,0-.17,0-.25.12.16.27.3.25.46l0-.36c.08,0,.28.07.3.14.2,0,0-.55.26-.58a.15.15,0,0,1,0-.13c.17-.1.47-.08.44-.39l.33.19c.07-.16-.43-.23-.31-.5s.26.18.38.21c-.05-.19-.15-.58.17-.47C89.29,34.24,89.22,34.23,89.19,34.29Zm1.61-1.36c0,.07,0,.25-.09.15C90.59,32.81,90.7,32.9,90.8,32.93Zm2.66-2.08c0,.09-.06.07-.15,0S93.39,30.81,93.46,30.85Zm8.07-5.28h0C101.4,25.53,101.45,25.55,101.53,25.57Zm.22,0a.1.1,0,0,0,0-.09c0,.06,0,.08-.07.09S101.72,25.65,101.75,25.57ZM83.26,37.32h.07C83.33,37.44,83.3,37.38,83.26,37.32Z" transform="translate(-2.03 -1.44)"/><path class="cls-2" d="M93.26,31.31a.44.44,0,0,1-.08-.11A.12.12,0,0,0,93.26,31.31Z" transform="translate(-2.03 -1.44)"/><path class="cls-2" d="M88.3,35.23h0l0,0Z" transform="translate(-2.03 -1.44)"/><path class="cls-2" d="M99.77,28.78a.27.27,0,0,1-.12-.09C99.67,28.75,99.7,28.79,99.77,28.78Z" transform="translate(-2.03 -1.44)"/><path class="cls-2" d="M102.46,24.72l-.08.12c.05,0,.09,0,.14,0S102.43,24.74,102.46,24.72Z" transform="translate(-2.03 -1.44)"/><path class="cls-2" d="M104.18,25.49s0,0,0-.06l-.06-.1C104.09,25.39,104.09,25.49,104.18,25.49Z" transform="translate(-2.03 -1.44)"/><path class="cls-2" d="M103,25.38c.11.18.15.07.2,0h0C103,25.12,103,25.25,103,25.38Z" transform="translate(-2.03 -1.44)"/><path class="cls-2" d="M103.18,25.36a.18.18,0,0,1,.07-.05C103.2,25.21,103.21,25.31,103.18,25.36Z" transform="translate(-2.03 -1.44)"/><path class="cls-2" d="M101.91,25.34c.06,0-.1-.25,0-.18C101.79,24.9,101.77,25.57,101.91,25.34Z" transform="translate(-2.03 -1.44)"/><polygon class="cls-2" points="101.34 24.5 101.18 24.29 101.24 24.5 101.34 24.5"/><path class="cls-2" d="M102.65,26.13h.16a.1.1,0,0,1,0-.09C102.72,26.07,102.61,26.06,102.65,26.13Z" transform="translate(-2.03 -1.44)"/><path class="cls-2" d="M102.8,26a.12.12,0,0,0,.08-.1A.29.29,0,0,0,102.8,26Z" transform="translate(-2.03 -1.44)"/><polygon class="cls-2" points="101.2 24.67 101.14 24.64 101.04 24.68 101.2 24.67"/><path class="cls-2" d="M101.24,26.78l-.12.13c0,.08.09.12.13.06S101.29,26.84,101.24,26.78Z" transform="translate(-2.03 -1.44)"/><path class="cls-2" d="M102,27.2a.64.64,0,0,1-.15-.14l.14.28Z" transform="translate(-2.03 -1.44)"/><path class="cls-2" d="M101.58,27.47c0,.09-.11.33.07.23C101.63,27.61,101.75,27.48,101.58,27.47Z" transform="translate(-2.03 -1.44)"/><polygon class="cls-2" points="97.18 26.63 97.22 26.61 97.01 26.13 97.18 26.63"/><path class="cls-2" d="M97.7,30c.22,0-.07-.31.14-.23,0-.13-.17-.07-.17-.18C97.61,29.76,97.53,29.71,97.7,30Z" transform="translate(-2.03 -1.44)"/><path class="cls-2" d="M97.67,29.6a.3.3,0,0,0,0-.1A.44.44,0,0,0,97.67,29.6Z" transform="translate(-2.03 -1.44)"/><polygon class="cls-2" points="77.76 43.05 77.64 43.16 77.83 43.09 77.76 43.05"/><path class="cls-2" d="M80.16,44.74h-.33l.29.09S80.08,44.76,80.16,44.74Z" transform="translate(-2.03 -1.44)"/><path class="cls-2" d="M91.42,33.35l0-.08a.12.12,0,0,0-.14,0Z" transform="translate(-2.03 -1.44)"/><polygon class="cls-2" points="88 32.53 88.03 32.52 87.81 32.3 88 32.53"/><path class="cls-2" d="M89.34,35s0-.11.08-.13S89.07,34.73,89.34,35Z" transform="translate(-2.03 -1.44)"/><path class="cls-2" d="M47.5,52.9s-.2,0-.24,0S47.56,52.89,47.5,52.9Z" transform="translate(-2.03 -1.44)"/><polygon class="cls-2" points="46.24 52.04 46.15 52.07 46.39 52.06 46.24 52.04"/><path class="cls-2" d="M48.63,54.05c.25-.27-.19-.15-.15-.33l.05-.06-.27.11C48.38,53.88,48.65,53.9,48.63,54.05Z" transform="translate(-2.03 -1.44)"/><path class="cls-2" d="M48.27,54.85c.09-.12.15,0,0-.1l0,0A.1.1,0,0,1,48.27,54.85Z" transform="translate(-2.03 -1.44)"/><path class="cls-2" d="M48.23,54.79c-.06,0,0,.11,0,0Z" transform="translate(-2.03 -1.44)"/><path class="cls-2" d="M48.53,55l-.16,0c0,.07,0,.15-.06.17C48.43,55.2,48.48,55.12,48.53,55Z" transform="translate(-2.03 -1.44)"/><path class="cls-2" d="M48.78,54.86h-.07S48.69,54.91,48.78,54.86Z" transform="translate(-2.03 -1.44)"/><path class="cls-2" d="M48.56,54.87h.15s.12-.14-.06,0C48.73,54.79,48.64,54.85,48.56,54.87Z" transform="translate(-2.03 -1.44)"/><path class="cls-2" d="M48.55,54.78c0-.09,0-.17.17-.19C48.56,54.49,48.39,54.68,48.55,54.78Z" transform="translate(-2.03 -1.44)"/><path class="cls-2" d="M49,53.84l0-.12-.13,0C48.93,53.74,48.86,53.91,49,53.84Z" transform="translate(-2.03 -1.44)"/><path class="cls-2" d="M48.85,55.52c0-.05.11-.17.17-.25l-.11,0A.38.38,0,0,1,48.85,55.52Z" transform="translate(-2.03 -1.44)"/><path class="cls-2" d="M49,55.27l.16,0C49.12,55.16,49.07,55.2,49,55.27Z" transform="translate(-2.03 -1.44)"/><path class="cls-2" d="M49.08,54.58l-.32.08.17,0,.17,0Z" transform="translate(-2.03 -1.44)"/><polygon class="cls-2" points="47.12 54.34 46.96 54.44 47.21 54.29 47.12 54.34"/><path class="cls-2" d="M49.36,55.9c-.12.1-.1.24-.19.29.07,0,.2,0,.3-.12C49.39,56.1,49.35,56.05,49.36,55.9Z" transform="translate(-2.03 -1.44)"/><path class="cls-2" d="M49.64,56l-.17.09A.35.35,0,0,0,49.64,56Z" transform="translate(-2.03 -1.44)"/><path class="cls-2" d="M49.28,55.36a.48.48,0,0,0-.08.22l.11-.19Z" transform="translate(-2.03 -1.44)"/><path class="cls-2" d="M49.31,55.38h0l.06.06Z" transform="translate(-2.03 -1.44)"/><path class="cls-2" d="M49.28,55.36Z" transform="translate(-2.03 -1.44)"/><path class="cls-2" d="M49.13,54.89c.12,0,.29-.08.33-.29C49.34,54.69,49.31,54.81,49.13,54.89Z" transform="translate(-2.03 -1.44)"/><path class="cls-2" d="M49.41,55.12l0-.11a.37.37,0,0,1-.13.15Z" transform="translate(-2.03 -1.44)"/><polygon class="cls-2" points="47.47 53.65 47.38 53.68 47.4 53.71 47.47 53.65"/><path class="cls-2" d="M49.62,55.72a.2.2,0,0,1,.18,0,.31.31,0,0,0-.1-.15C49.65,55.6,49.56,55.69,49.62,55.72Z" transform="translate(-2.03 -1.44)"/><path class="cls-2" d="M49.48,55.54h0S49.5,55.51,49.48,55.54Z" transform="translate(-2.03 -1.44)"/><path class="cls-2" d="M50.22,56l0,0,0,0Z" transform="translate(-2.03 -1.44)"/><path class="cls-2" d="M49.72,55.51c0-.06-.06,0-.12,0a.17.17,0,0,1,.1,0S49.73,55.51,49.72,55.51Z" transform="translate(-2.03 -1.44)"/><path class="cls-2" d="M49.82,56a.66.66,0,0,0,0-.14C49.8,55.91,49.78,56,49.82,56Z" transform="translate(-2.03 -1.44)"/><path class="cls-2" d="M49.47,55.59h0S49.46,55.62,49.47,55.59Z" transform="translate(-2.03 -1.44)"/><path class="cls-2" d="M49.47,55.59a.56.56,0,0,0,.13-.07.16.16,0,0,0-.1,0Z" transform="translate(-2.03 -1.44)"/><path class="cls-2" d="M51.1,54.88c-.11.17-.3.28-.25,0a3,3,0,0,0-.61,1,.41.41,0,0,1,.24-.19c0-.11,0-.33.13-.44s0,.11,0,.23c.1-.23.33-.23.51-.55l-.16,0S51.1,54.94,51.1,54.88Z" transform="translate(-2.03 -1.44)"/><path class="cls-2" d="M50.1,55.83h-.05a.67.67,0,0,1,0,.31.53.53,0,0,0,.21-.16l-.15-.13Z" transform="translate(-2.03 -1.44)"/><path class="cls-2" d="M49.91,55.73c.15-.16.27-.19.36-.42-.1-.05-.17.11-.28.15.19.06-.11.07-.07.25a.23.23,0,0,1-.12,0,.59.59,0,0,1,0,.14h0v0h0l0-.07c0,.07,0,.06,0,.07l0,0h.22S50,55.76,49.91,55.73Z" transform="translate(-2.03 -1.44)"/><path class="cls-2" d="M49.85,54.3l0,0S49.86,54.32,49.85,54.3Z" transform="translate(-2.03 -1.44)"/><path class="cls-2" d="M49.81,54.45s-.09.08-.11,0,.07-.08.12-.14-.17.07-.18.2h0a1,1,0,0,1-.13.39A3.17,3.17,0,0,0,49.81,54.45Z" transform="translate(-2.03 -1.44)"/><path class="cls-2" d="M49.88,55.05h.18l.06-.2-.07.09C50,54.86,49.94,55,49.88,55.05Z" transform="translate(-2.03 -1.44)"/><polygon class="cls-2" points="48.15 54.65 48.01 54.84 48.26 54.61 48.15 54.65"/><polygon class="cls-2" points="48.33 54.73 48.22 54.9 48.33 54.83 48.33 54.73"/><path class="cls-2" d="M59.93,60.84H60A.08.08,0,0,0,59.93,60.84Z" transform="translate(-2.03 -1.44)"/><path class="cls-2" d="M59.73,60.61l-.07.06C59.71,60.64,59.74,60.62,59.73,60.61Z" transform="translate(-2.03 -1.44)"/><path class="cls-2" d="M54,58.57c-.07.19-.21.46-.07.27l.13-.18C54,58.66,54,58.63,54,58.57Z" transform="translate(-2.03 -1.44)"/><path class="cls-2" d="M57.16,59.63l0-.06-.17.12Z" transform="translate(-2.03 -1.44)"/><path class="cls-2" d="M57.84,59l-.05.16A.43.43,0,0,0,57.84,59Z" transform="translate(-2.03 -1.44)"/><path class="cls-2" d="M61.22,61.87l.2-.12C61.36,61.7,61.3,61.8,61.22,61.87Z" transform="translate(-2.03 -1.44)"/><path class="cls-2" d="M52.06,57.09a.31.31,0,0,0,0,.18C52.12,57.13,52.17,56.94,52.06,57.09Z" transform="translate(-2.03 -1.44)"/><path class="cls-2" d="M58.14,62.37a.34.34,0,0,0,.12-.06A.14.14,0,0,0,58.14,62.37Z" transform="translate(-2.03 -1.44)"/><path class="cls-2" d="M52.23,57.35v-.06s-.1,0-.13,0S52.11,57.45,52.23,57.35Z" transform="translate(-2.03 -1.44)"/><path class="cls-2" d="M65.28,66.42a0,0,0,0,1,0,0S65.29,66.43,65.28,66.42Z" transform="translate(-2.03 -1.44)"/><path class="cls-2" d="M64.59,69.17s0,0,0,0S64.55,69.15,64.59,69.17Z" transform="translate(-2.03 -1.44)"/><path class="cls-2" d="M51,56.66s0,0,0,0Z" transform="translate(-2.03 -1.44)"/><path class="cls-2" d="M51.26,55.81a.4.4,0,0,0,.07-.09A.4.4,0,0,1,51.26,55.81Z" transform="translate(-2.03 -1.44)"/><path class="cls-2" d="M53.27,56.36h0S53.29,56.33,53.27,56.36Z" transform="translate(-2.03 -1.44)"/><path class="cls-2" d="M51,56.55a.19.19,0,0,0,0,.08A.25.25,0,0,0,51,56.55Z" transform="translate(-2.03 -1.44)"/><path class="cls-2" d="M50.93,56.64l0,0S50.88,56.65,50.93,56.64Z" transform="translate(-2.03 -1.44)"/><path class="cls-2" d="M51,56.68a.1.1,0,0,1,0,0,0,0,0,0,1,0,0Z" transform="translate(-2.03 -1.44)"/><path class="cls-2" d="M62.59,64.4v0C62.67,64.39,62.65,64.39,62.59,64.4Z" transform="translate(-2.03 -1.44)"/><polygon class="cls-2" points="54.24 56.03 54.23 56.04 54.23 56.05 54.24 56.03"/><path class="cls-2" d="M56.49,57.44c-.23.17-.24.12-.23.05l-.39.51Z" transform="translate(-2.03 -1.44)"/><path class="cls-2" d="M60.46,61.32l.08-.21c.32-.14.29,0,.43-.26-.51.47-.31-.23-.82.24l.06-.15s0,0,0,0c.16-.32-.43.28-.47.09a.2.2,0,0,1,.14-.2l-.21,0s.08-.11.09-.08l-.17-.1h0l-.34.15c0-.1.07,0,.13-.1l-.2,0c.1-.16.29-.21.32-.14.44-.55-.19.05,0-.38h.14c.24-.32.08-.28.18-.53-.07.11-.29.59-.5.63,0-.06,0-.11-.14-.06.18-.17.1-.18,0-.22l.24-.22c-.13,0-.24.12-.38.19,0-.09.13-.28.27-.44-.07-.15-.23.35-.4.26,0-.17-.15-.14-.4-.11,0-.15.15-.13.2-.22l-.24.13s.05-.07.08-.1-.24.22-.37.21c-.28.23.22-.52-.16-.32,0-.09.16-.13.24-.23a1.73,1.73,0,0,0-.6.19l.06-.24a1.15,1.15,0,0,1-.63.46c-.06.11-.12.2-.14.25h-.23a.69.69,0,0,1,.23-.2l-.08,0a.93.93,0,0,1,.36-.35l-.11.19a3.14,3.14,0,0,0,.48-.39.19.19,0,0,1-.1,0,.35.35,0,0,0,.11-.09s0,0-.12.05l.23-.28-.11.09v-.31c-.36.16-.82.45-1.1.4a3.4,3.4,0,0,0,.53-.54c-.18.29.23,0,.27.17,0-.08.1-.17.15-.2l-.37.06c.18-.18.1-.17.13-.29-.32.4-.36.14-.54.2.12-.13.25-.25.31-.14.17-.37-.53.33-.4,0,0,0,0,0,.09,0-.15.07-.19-.12-.06-.2h0a.43.43,0,0,0-.71,0,5.83,5.83,0,0,1,.43-.44l-1.2.9c.27-.27.77-1,1-1.07,0-.07,0-.16-.15-.11a2,2,0,0,1-.35.45,2.22,2.22,0,0,0,.21-.57c0,.09-.43.5-.47.44s.37-.44.43-.47l-.5.32a1.68,1.68,0,0,0,.39-.52c-.06.1-.1-.1-.17-.09l0,.15c-.09-.19-.66.5-.78.36.09-.08.5-.54.47-.66l-.07.07.07.06a15,15,0,0,1-1.31.9l.09-.15-.21.08a6.94,6.94,0,0,1,1.48-1c0-.16.12-.16,0-.24a.19.19,0,0,1,.25-.11l-.16-.29c-.22.27-.4.11-.57.35a1.45,1.45,0,0,1,.23,0l.24,0c-.23.26-.78.6-.88.45a4.2,4.2,0,0,1,.48-.54c-.09.07-.28.06-.25,0l.18-.09c0-.17-.41.25-.32-.09,0,0,.15-.44,0-.27a10.76,10.76,0,0,1-1.07,1.57,4.42,4.42,0,0,1,.12-.61c.12-.29.5-.55.6-.8a.68.68,0,0,1-.19.17c0-.09.18-.23.07-.25-.2.28-.14-.13-.2.22-.13,0,0-.11-.14-.16a1.78,1.78,0,0,1-.62.63,1.17,1.17,0,0,0,.11-.23c-.13-.12-.14-.31-.29-.4,0-.08,0-.21.12-.32-.05,0-.13.13-.18.11.06-.32.13,0,.24-.33-.11.17-.26.17-.39.24-.14.28.12.14.25.07a1.87,1.87,0,0,1-.82.78c-.17,0,.09-.28,0-.24-.19-.2-.58.54-.61.16a3.11,3.11,0,0,1,.35-.66c.16,0,.07.24.14.27v-.16c.07-.06.17-.08.17,0,.06-.25-.37-.27-.43-.57-.07.06-.18.11-.21.22h.08c-.06.23-.27.2-.25.34-.15.09-.37.24-.41.07l.14-.28c0,.08,0,.2.06.14-.12.09.05-.46-.21-.14l0,.23c-.16.09-.43.31-.47.17-.12.29,0,0-.08.33.17-.42.24.18.39-.29-.15.4,0,.23-.06.59.05-.09.06-.19.12-.1l.06-.06h0v0h0a.32.32,0,0,1,0-.16c.16-.18.28-.1.39-.18,0,.07-.08.09-.11.2l.16-.12c-.11.2-.07.4-.25.45l.1.07c0,.15,0,.24.14.19s.25-.16.12,0l.23,0,0,0c.14.12.51-.14.46.32.08,0,.17,0,.22.05l-.09.18c.1,0,.07.28.21.12-.22.5.23.28.26.43l.15-.21c.06.06.17,0,.31,0l.13-.19c.19-.1.08.27.2.33-.06.06-.07,0-.06,0-.1.25,0,.22.15.19s.27-.07.19.1H54l.09.08s0,0,0,.08h0v0l0,.13a.27.27,0,0,0,0-.13.24.24,0,0,0,.16,0l-.14.2h0c0,.1.1-.06.2-.22a.7.7,0,0,0,.14-.08c-.22.33.18,0,0,.34.15-.14.27,0,.58-.28,0,0-.05.08-.07.06s0,.15.13.09l-.18.25.36-.24a.7.7,0,0,1-.34.43c.37-.17.2,0,.55-.2l-.14.15s.29-.12.2,0c-.17.36.39.42.37.87.37-.47-.09.29.24,0-.09.12-.11.2-.23.26.2,0,0,.32.35.12-.09.11-.17.12-.22.19s.12-.05.07,0-.1.07-.16.1c.13.09.44-.21.74-.5-.08.2,0,.21.19.06-.07.11-.14.24-.24.21s.09.37.33.15c0,.07,0,.07.07,0s.06.13.17.19V60.6c.32-.24.13,0,.24,0l0,0c0,.36.16,0,.08.36l.17-.18c.4-.35-.09.35.14.3l.07-.12c.19-.08-.38.63-.38.73s-.07,0-.11,0c-.11.35.25-.21.4-.16-.11.14-.35.28-.31.37s.59-.18.44.14c.08-.11.16-.23.27-.25s-.18.55.18.32l-.06.09c.13,0,.29,0,.49-.07-.57.63.62.06,0,.6L59,63l-.06.05c.06.14.23,0,.4,0,0,.06-.08.09-.12.12,0,.26.08.26.48.12l-.17.19c.14-.07-.07.5.29.44l-.1.07c.38,0-.11.9.61.32l.28,0c-.09-.19.31-.25.36-.42.09,0-.06.34-.16.31l0,0c-.37.31,0,.3-.19.53.32.29.39.73.64,1l.24-.3.07.11c0,.09-.17.24-.23.16-.11.19.24,0,.3-.07,0,.24-.36.26-.33.3l.07,0,0,0c.15-.07.27-.18.34-.09s-.14.19-.13.22,0,0,0,0l.09.14.17-.26c.15,0,.09.12.28-.16-.29.44.29.56.22.72.22-.07.29,0,.35.11,0-.07.26-.31.3-.2-.53.44-.08.34-.38.74.18-.28.26.16.52-.24,0,.1-.18.18-.26.34.34,0,.17.45.39.57.08,0,.15-.17.29-.22l-.26.39c.07,0,.43-.3.25,0,0-.06.13-.15.17-.14,0,.33.23.44.42.63a.69.69,0,0,1,.17.86c.1-.16.14-.13.18-.09s.18-.13.27-.21l-.14.38c.3-.17.16.17.43,0l-.08,0c.36-.16.6-.61,1-.89-.42.17.35-.6-.25-.37.06-.09.15-.07.22-.15-.19.09-.26.07-.24-.06l0,0c-.21-.19-.1-.41-.18-.73l-.18.16c0-.07,0-.13.06-.19-.35.16.11.16-.26.35.33-.37-.31-.37.09-.77-.07-.08-.2.2-.27.12l.1-.12-.17.1c0-.07.1-.22.2-.3s.06,0,.08,0c.08-.18-.22-.16-.19-.22v.14c-.3-.13-.39-.55-.8-.53l-.07.09c-.3,0,0-.2-.25-.3h0c-.12,0-.2,0-.23,0,.13,0,.11-.25.27-.3-.32,0-.21,0-.62.23l.12-.16c-.16.08-.23.14-.34.1.18,0,.16-.26.38-.33.14-.46-.54,0-.18-.47-.45.29-.07.36-.19.39s-.34.21-.36.12.4-.56.26-.69,0,0,0,0-.23,0-.13-.18c-.26.19-.07-.1-.37.18l.19.06c-.15,0-.55.27-.5,0a.91.91,0,0,1,.25-.11c0-.11-.12,0-.07-.13.3-.27.21.09.5,0,.09-.16-.35.06,0-.21-.45.34-.08-.18-.47,0l.18-.16s-.15.06-.18,0l.28-.18c-.27.12,0-.3-.15-.27.15.14-.18.24-.24.43-.41,0,.35-.56.06-.68,0,0,0,.21-.12.24a.48.48,0,0,1,.08-.3c-.17-.1-.16.2-.32.24.08-.12,0-.12,0-.08s-.1,0-.12.08l-.12,0,.18-.17c0-.26-.41.32-.41,0l.31-.17-.13,0,.21-.18c-.22.07-.21,0-.23-.12-.1.13-.33.3-.4.23s.19-.13.08-.21c.13-.08.29-.19.17,0l.19-.14c.07-.17-.09-.15-.13-.19a.11.11,0,0,1,0,.08l-.38.1a.35.35,0,0,1,.18-.16s-.15,0-.2,0c.15-.12.3-.27.43-.28l-.29,0c0-.07.1-.23.17-.27s-.45.09-.44-.12a.21.21,0,0,1-.11,0c0-.13,0-.38-.26-.3l.2-.31c-.14,0-.24.4-.48.35s.19-.25.23-.36c-.18.07-.53.24-.41-.06C60.43,61.25,60.41,61.31,60.46,61.32Zm-1.11-1c.06,0,.21-.08.12,0S59.32,60.44,59.35,60.35Zm-2-1.22c.07,0,.07,0,0,.11S57.32,59.2,57.34,59.13Zm-5.88-2.42h0C51.47,56.82,51.47,56.77,51.46,56.71Zm-.07-.16a.19.19,0,0,0,0,.09s.06,0,.09,0S51.46,56.52,51.39,56.55Zm10.3,9.32,0-.07C61.81,65.8,61.76,65.83,61.69,65.87Z" transform="translate(-2.03 -1.44)"/><path class="cls-2" d="M57.76,59.08l-.09.1A.18.18,0,0,0,57.76,59.08Z" transform="translate(-2.03 -1.44)"/><polygon class="cls-2" points="59.16 60.46 59.16 60.46 59.19 60.44 59.16 60.46"/><path class="cls-2" d="M54.26,55.84a.23.23,0,0,1,0,.14S54.29,55.88,54.26,55.84Z" transform="translate(-2.03 -1.44)"/><path class="cls-2" d="M50.56,56.54h.11c-.05,0,0-.06,0-.11S50.58,56.55,50.56,56.54Z" transform="translate(-2.03 -1.44)"/><path class="cls-2" d="M50.73,54.84s0,0,0,0l-.06.09C50.67,55,50.75,54.91,50.73,54.84Z" transform="translate(-2.03 -1.44)"/><path class="cls-2" d="M50.91,55.8c.11-.18,0-.15,0-.15h0C50.7,55.89,50.81,55.85,50.91,55.8Z" transform="translate(-2.03 -1.44)"/><path class="cls-2" d="M50.85,55.65s0,0-.05,0S50.8,55.65,50.85,55.65Z" transform="translate(-2.03 -1.44)"/><path class="cls-2" d="M51.18,56.58c0-.06-.15.22-.12.14C50.9,56.94,51.38,56.54,51.18,56.58Z" transform="translate(-2.03 -1.44)"/><polygon class="cls-2" points="49.21 53.75 49.09 53.98 49.23 53.82 49.21 53.75"/><path class="cls-2" d="M51.54,55.59l0-.11s0,.06-.06.06S51.5,55.66,51.54,55.59Z" transform="translate(-2.03 -1.44)"/><path class="cls-2" d="M51.43,55.54s-.06,0-.09,0A.09.09,0,0,0,51.43,55.54Z" transform="translate(-2.03 -1.44)"/><polygon class="cls-2" points="49.36 53.75 49.35 53.81 49.4 53.86 49.36 53.75"/><path class="cls-2" d="M52.4,56.15h.12c.06-.07.06-.13,0-.12S52.42,56.07,52.4,56.15Z" transform="translate(-2.03 -1.44)"/><path class="cls-2" d="M52.48,55.39a.58.58,0,0,1-.06.19l.16-.27Z" transform="translate(-2.03 -1.44)"/><path class="cls-2" d="M52.78,55.48c0-.07.26-.15.13-.19S52.73,55.37,52.78,55.48Z" transform="translate(-2.03 -1.44)"/><polygon class="cls-2" points="51.88 55.22 51.86 55.21 51.56 55.64 51.88 55.22"/><path class="cls-2" d="M55.77,56.57c0-.19-.23.23-.22,0-.1.07,0,.16-.09.22C55.59,56.77,55.58,56.86,55.77,56.57Z" transform="translate(-2.03 -1.44)"/><path class="cls-2" d="M55.46,56.82l-.08,0Z" transform="translate(-2.03 -1.44)"/><polygon class="cls-2" points="62.52 68.13 62.48 68.25 62.59 68.11 62.52 68.13"/><path class="cls-2" d="M64.94,69.46l-.25.21.27-.14S64.89,69.51,64.94,69.46Z" transform="translate(-2.03 -1.44)"/><path class="cls-2" d="M59.69,59.73l-.06.05c-.06.07-.05.09,0,.13Z" transform="translate(-2.03 -1.44)"/><polygon class="cls-2" points="58.2 59.24 58.2 59.23 58 59.46 58.2 59.24"/><path class="cls-2" d="M61.11,61.07s-.09,0-.11,0S60.85,61.34,61.11,61.07Z" transform="translate(-2.03 -1.44)"/><path class="cls-2" d="M98.2,63.74s-.12-.15-.15-.18S98.24,63.78,98.2,63.74Z" transform="translate(-2.03 -1.44)"/><polygon class="cls-2" points="96.2 62.94 96.15 62.87 96.24 63.07 96.2 62.94"/><path class="cls-2" d="M97.91,64.63c.26.26.08-.13.22-.08l.06.06L98,64.36C98,64.46,98,64.67,97.91,64.63Z" transform="translate(-2.03 -1.44)"/><path class="cls-2" d="M97.27,64.12c.1.11,0,.12.07,0l0,0A.05.05,0,0,1,97.27,64.12Z" transform="translate(-2.03 -1.44)"/><path class="cls-2" d="M97.31,64.1s-.09-.08,0,0Z" transform="translate(-2.03 -1.44)"/><path class="cls-2" d="M97.21,64.28l0-.14c-.06-.06-.1,0-.12-.11C97.06,64.12,97.11,64.18,97.21,64.28Z" transform="translate(-2.03 -1.44)"/><path class="cls-2" d="M97.33,64.53v-.06S97.28,64.43,97.33,64.53Z" transform="translate(-2.03 -1.44)"/><path class="cls-2" d="M97.3,64.34l0,.13s.11.14,0,0C97.37,64.51,97.32,64.42,97.3,64.34Z" transform="translate(-2.03 -1.44)"/><path class="cls-2" d="M97.36,64.36c.07,0,.13.07.16.2C97.57,64.46,97.41,64.26,97.36,64.36Z" transform="translate(-2.03 -1.44)"/><path class="cls-2" d="M98.13,64.94l.1.06,0-.12C98.21,64.94,98.05,64.85,98.13,64.94Z" transform="translate(-2.03 -1.44)"/><path class="cls-2" d="M96.84,64.29c0,.07.13.17.18.25v-.1A.43.43,0,0,1,96.84,64.29Z" transform="translate(-2.03 -1.44)"/><path class="cls-2" d="M97,64.54l0,.14S97.07,64.61,97,64.54Z" transform="translate(-2.03 -1.44)"/><polygon class="cls-2" points="95.52 63.43 95.44 63.14 95.51 63.44 95.52 63.43"/><polygon class="cls-2" points="94.63 62.96 94.56 62.79 94.66 63.05 94.63 62.96"/><path class="cls-2" d="M96.55,64.5c0-.14-.15-.21-.18-.3a.87.87,0,0,0,0,.28C96.41,64.41,96.45,64.41,96.55,64.5Z" transform="translate(-2.03 -1.44)"/><path class="cls-2" d="M96.45,64.66a.86.86,0,0,0,0-.18A1.25,1.25,0,0,0,96.45,64.66Z" transform="translate(-2.03 -1.44)"/><path class="cls-2" d="M96.94,64.7a1.1,1.1,0,0,0-.15-.16l.13.17Z" transform="translate(-2.03 -1.44)"/><path class="cls-2" d="M96.92,64.72h0l0,0Z" transform="translate(-2.03 -1.44)"/><path class="cls-2" d="M97,64.7h0S97,64.73,97,64.7Z" transform="translate(-2.03 -1.44)"/><path class="cls-2" d="M97.3,64.79a.59.59,0,0,0,.21.39C97.45,65,97.35,65,97.3,64.79Z" transform="translate(-2.03 -1.44)"/><path class="cls-2" d="M97.11,64.92h.08a1,1,0,0,1-.1-.18Z" transform="translate(-2.03 -1.44)"/><polygon class="cls-2" points="95.1 63.56 95.09 63.48 95.06 63.48 95.1 63.56"/><path class="cls-2" d="M96.64,64.78c0,.1,0,.12,0,.15a.2.2,0,0,0,.13,0C96.72,64.87,96.67,64.76,96.64,64.78Z" transform="translate(-2.03 -1.44)"/><path class="cls-2" d="M96.79,64.77v0S96.81,64.81,96.79,64.77Z" transform="translate(-2.03 -1.44)"/><path class="cls-2" d="M96.32,65.09l0,0v0Z" transform="translate(-2.03 -1.44)"/><path class="cls-2" d="M96.78,65s0,0,0-.1a.16.16,0,0,1,0,.07S96.77,65,96.78,65Z" transform="translate(-2.03 -1.44)"/><path class="cls-2" d="M96.42,64.79l.09.08C96.47,64.82,96.39,64.74,96.42,64.79Z" transform="translate(-2.03 -1.44)"/><path class="cls-2" d="M96.76,64.74h0S96.74,64.71,96.76,64.74Z" transform="translate(-2.03 -1.44)"/><path class="cls-2" d="M96.76,64.74a.61.61,0,0,0,0,.13.11.11,0,0,0,0-.08Z" transform="translate(-2.03 -1.44)"/><path class="cls-2" d="M96.84,66.4c-.08-.18-.09-.39.07-.23a4.31,4.31,0,0,0-.57-1,.48.48,0,0,1,.07.29c.07.09.25.17.28.36s-.1,0-.18-.11c.14.21,0,.38.22.71l0-.15S96.79,66.36,96.84,66.4Z" transform="translate(-2.03 -1.44)"/><path class="cls-2" d="M96.46,65.08v0a.79.79,0,0,1-.2-.21.57.57,0,0,0,.06.25l.12,0Z" transform="translate(-2.03 -1.44)"/><path class="cls-2" d="M96.57,65a1.92,1.92,0,0,0,.22.51c.07,0,0-.19,0-.29-.08.1,0-.13-.16-.2a.1.1,0,0,1,0-.08l-.11-.06h0v0h0l0,.08s0,0,0-.08v0h0l0,.17S96.53,65,96.57,65Z" transform="translate(-2.03 -1.44)"/><path class="cls-2" d="M97.7,65.62l0,0S97.68,65.62,97.7,65.62Z" transform="translate(-2.03 -1.44)"/><path class="cls-2" d="M97.58,65.53s0-.11,0-.1.06.09.1.15a.29.29,0,0,0-.14-.23v0a1.17,1.17,0,0,1-.3-.27A3.66,3.66,0,0,0,97.58,65.53Z" transform="translate(-2.03 -1.44)"/><path class="cls-2" d="M97.1,65.33l0,.15.15.14-.06-.1C97.22,65.53,97.13,65.41,97.1,65.33Z" transform="translate(-2.03 -1.44)"/><polygon class="cls-2" points="94.23 63.56 94.14 63.34 94.24 63.66 94.23 63.56"/><polygon class="cls-2" points="94.13 63.64 94.04 63.45 94.06 63.58 94.13 63.64"/><path class="cls-2" d="M89.16,70.13v0Z" transform="translate(-2.03 -1.44)"/><path class="cls-2" d="M89.33,70.05l0-.09C89.31,70,89.32,70.05,89.33,70.05Z" transform="translate(-2.03 -1.44)"/><path class="cls-2" d="M92.84,66.25c-.1-.17-.23-.44-.17-.22l.08.21S92.8,66.21,92.84,66.25Z" transform="translate(-2.03 -1.44)"/><path class="cls-2" d="M90.73,68.24l0,.06q0-.12,0-.21A.66.66,0,0,0,90.73,68.24Z" transform="translate(-2.03 -1.44)"/><path class="cls-2" d="M91,69.12l-.1-.11A.52.52,0,0,0,91,69.12Z" transform="translate(-2.03 -1.44)"/><path class="cls-2" d="M88.37,70.94l.12.19S88.44,71,88.37,70.94Z" transform="translate(-2.03 -1.44)"/><path class="cls-2" d="M94.86,65.69a.21.21,0,0,0-.14-.09C94.81,65.7,94.91,65.87,94.86,65.69Z" transform="translate(-2.03 -1.44)"/><path class="cls-2" d="M88.17,68a.24.24,0,0,0,0,.14A.24.24,0,0,0,88.17,68Z" transform="translate(-2.03 -1.44)"/><path class="cls-2" d="M94.61,65.63l0,.05c0-.05,0-.09.07-.08S94.6,65.48,94.61,65.63Z" transform="translate(-2.03 -1.44)"/><path class="cls-2" d="M84.67,74.27h0S84.67,74.28,84.67,74.27Z" transform="translate(-2.03 -1.44)"/><path class="cls-2" d="M82.78,74.6s0,0,0-.06S82.75,74.57,82.78,74.6Z" transform="translate(-2.03 -1.44)"/><path class="cls-2" d="M95.61,65.21s0,0,0,0Z" transform="translate(-2.03 -1.44)"/><path class="cls-2" d="M96.09,66a.3.3,0,0,0,0,.11A.3.3,0,0,1,96.09,66Z" transform="translate(-2.03 -1.44)"/><path class="cls-2" d="M94.75,67.05h0S94.77,67.08,94.75,67.05Z" transform="translate(-2.03 -1.44)"/><path class="cls-2" d="M95.69,65.29l-.06-.05Z" transform="translate(-2.03 -1.44)"/><path class="cls-2" d="M95.65,65.2h0S95.65,65.15,95.65,65.2Z" transform="translate(-2.03 -1.44)"/><path class="cls-2" d="M95.58,65.24h0l0,0S95.6,65.23,95.58,65.24Z" transform="translate(-2.03 -1.44)"/><path class="cls-2" d="M86.32,71.86h0C86.35,71.93,86.34,71.91,86.32,71.86Z" transform="translate(-2.03 -1.44)"/><polygon class="cls-2" points="90.62 67.26 90.62 67.25 90.61 67.24 90.62 67.26"/><path class="cls-2" d="M92.58,68.89c0-.28,0-.26.06-.21l-.21-.61Z" transform="translate(-2.03 -1.44)"/><path class="cls-2" d="M88.78,70.43l.16.14c.11.31,0,.24.21.45-.37-.59.15-.17-.19-.78l.11.11s0,0,0,0c.23.25-.19-.47,0-.44a.3.3,0,0,1,.15.19v-.2h0l0,0h0a.2.2,0,0,1,0,.08h0l0,0h0l0,0h0l0,0,.06-.06v0a3,3,0,0,1-.06-.36c.08.07,0,.08.06.15v-.19c.11.15.11.34,0,.34.36.6,0-.19.32.1l0,.12c.22.34.22.18.41.36-.08-.1-.44-.48-.42-.68.05,0,.09,0,.08-.1.1.22.13.14.17.11l.13.3a1.73,1.73,0,0,0-.09-.4c.08,0,.19.23.29.42.11,0-.23-.35-.14-.45.13.08.14-.06.17-.28.09.08.06.19.11.27l0-.27s0,.08,0,.12-.11-.31-.06-.42c-.1-.35.33.44.28,0a1.69,1.69,0,0,1,.11.32,2.3,2.3,0,0,0,0-.61l.16.18a1.44,1.44,0,0,1-.15-.77,2.64,2.64,0,0,0-.14-.24l.07-.21a1.33,1.33,0,0,1,.08.3V68a.91.91,0,0,1,.14.48l-.1-.18a3.08,3.08,0,0,0,.14.6.16.16,0,0,1,0-.1,1.3,1.3,0,0,0,0,.13s0,0,0-.13l.14.34,0-.14.23.17A2.8,2.8,0,0,1,91.36,68a3.74,3.74,0,0,0,.2.72c-.14-.3-.1.18-.21.15.06,0,.1.16.1.22l.07-.35c.07.25.09.18.17.27-.18-.48,0-.37,0-.54.05.17.09.34,0,.33.2.34,0-.62.14-.33,0,0,0,0,0,.08,0-.16.16-.08.17.07h0c.15,0,.42-.12.32-.54,0,.05.13.51.14.6l-.15-1.48a7.55,7.55,0,0,1,.35,1.43s.1.1.13-.05a2,2,0,0,1-.17-.55,2.64,2.64,0,0,0,.31.51c0-.06-.17-.64-.11-.64s.15.56.15.62l0-.59a1.93,1.93,0,0,0,.2.62c0-.1.12,0,.14-.08l-.1-.12c.18,0-.06-.82.09-.83s.15.72.25.77a8.13,8.13,0,0,1-.16-1.67l.07.16,0-.22c.07.45.14,1.4.15,1.77.09.12.06.19.15.15.07.15,0,.25,0,.26l.23,0c-.1-.32.06-.37,0-.65l-.12.41c-.1-.33-.14-1,0-1a3.89,3.89,0,0,1,.18.71c0-.12.07-.26.11-.18v.19c.12.11,0-.47.19-.18,0,0,.22.39.17.2a13,13,0,0,1-.57-1.82,3.39,3.39,0,0,1,.36.48c.14.28.14.73.26,1a.87.87,0,0,1,0-.25c.06.07.07.28.13.22-.09-.34.16,0,0-.29,0-.12.1,0,.18,0a2.06,2.06,0,0,1-.12-.87,1.94,1.94,0,0,0,.1.24c.15,0,.28.1.42.06s.14.15.16.3c0-.06,0-.18,0-.2.18.25-.08.07.1.39-.06-.19,0-.3,0-.44s-.15,0-.17.13a2.15,2.15,0,0,1-.12-1.1c.07-.14.14.24.14.18.23,0-.1-.77.17-.54a2.93,2.93,0,0,1,.29.69c-.05.13-.2-.12-.25-.08l.12.09c0,.1,0,.19-.09.12.14.21.36-.09.61.06a.61.61,0,0,0-.06-.29l0,0c-.13-.19,0-.32-.13-.39s0-.43.12-.35l.14.28c0-.09-.13-.15-.12-.05,0-.14.31.33.18-.07l-.15-.17c0-.17-.07-.51,0-.45-.16-.26,0,0-.21-.26.24.39-.19.06.08.46-.23-.36-.17-.12-.38-.42,0,.1.1.17,0,.15a.36.36,0,0,0,0,.1h0a.64.64,0,0,1,.1.13c.06.24,0,.28,0,.4-.06,0,0-.11-.09-.21l0,.19c-.1-.21-.25-.31-.21-.47l-.08,0c-.1-.1-.18-.13-.19,0s0,.28,0,.1l-.08.18,0-.06c-.14,0-.15.46-.43.12,0,.07-.05.15-.14.11l-.08-.18c0,.09-.23-.13-.19.07-.23-.49-.32,0-.45-.08l.07.25c-.07,0-.11.1-.18.22l.07.22c0,.2-.24-.1-.36,0,0-.09,0-.08.06,0-.29-.46-.2.45-.44.12,0,.09,0,.07-.08,0h0l-.08-.1s0,.09.07.1a.19.19,0,0,0-.08.12l-.08-.23h0c-.06-.08,0,.12.07.29a.81.81,0,0,0,0,.16c-.14-.38-.07.16-.22-.24,0,.21-.15.2-.06.63,0-.06,0-.08,0-.09s-.12-.07-.12.06l-.11-.3,0,.44a.85.85,0,0,1-.17-.52c0,.39-.08.17-.09.55L92,67s0,.29-.11.14c-.2-.34-.48.08-.83-.19.22.56-.19-.22-.07.23,0-.13-.11-.2-.1-.33-.09.17-.26-.15-.23.25-.06-.13,0-.21-.08-.29s0,.13,0,.06a.25.25,0,0,1,0-.19c-.13.07,0,.49.11.88-.13-.17-.15-.13-.11.14-.07-.12-.15-.24-.08-.31s-.34-.09-.24.22c0-.08-.07,0-.07,0s-.12,0-.21,0l0,0c.1.39,0,.11-.11.19v0c-.29-.2,0,.15-.33-.08l.1.23c.18.49-.28-.23-.31,0l.1.11c0,.19-.45-.59-.54-.63s0-.07,0-.11c-.29-.22.11.3,0,.42-.09-.15-.16-.41-.24-.41s0,.6-.2.34a.67.67,0,0,1,.15.34s-.13,0-.21-.1-.08,0-.1,0,0,0,0,0,0,.07,0,.13a.16.16,0,0,1-.06-.08c0,.13-.12.27,0,.49-.48-.7-.15.57-.56-.09l-.16.14,0-.07c-.15,0-.08.23,0,.4-.06,0-.08-.09-.11-.13-.24,0-.25,0-.13.44L87,69.11c.06.15-.49-.13-.44.22a.24.24,0,0,1-.06-.1c.05.37-.86-.16-.28.57l.06.26c.18-.07.26.3.42.36,0,.08-.32-.08-.3-.17l0,0c-.32-.36-.28,0-.51-.2-.21.26-.65.33-.87.54l.3.23-.09.07c-.08,0-.24-.17-.18-.22-.18-.11,0,.22.11.27-.22,0-.29-.34-.32-.31l0,.07,0,0c.08.14.19.25.12.31s-.19-.14-.22-.13,0,0,0,0l-.12.08.26.16c.07.14-.1.08.19.26-.44-.28-.47.23-.63.16.11.21,0,.27,0,.32s.31.25.22.28c-.47-.5-.32-.1-.71-.41.26.19-.11.21.27.49-.09,0-.18-.18-.32-.27,0,.15-.07.19-.18.2s-.23,0-.27.07a1.55,1.55,0,0,1,.21.3l-.35-.3s.28.44,0,.23c.05,0,.13.14.12.17a.54.54,0,0,0-.18,0l-.11,0-.26.68c-.15.37.37.76-.35,1.14.17-.06.19,0,.2,0a1.25,1.25,0,0,1,.34,0l-.34.18c.34,0,0,.19.35.21l-.06-.05a11.62,11.62,0,0,0,1.34-.1c-.43-.09.65-.23,0-.37.1,0,.16,0,.28,0-.21,0-.26-.08-.16-.16h0c0-.22.16-.32.29-.57l-.24,0s.11-.06.17-.09c-.37-.06,0,.15-.43.1.37-.06.2-.24.31-.35l-.41.77c.06,0,.12,0,.22.16.08-.06-.18-.21-.1-.27l.1.11L84.41,74c.07,0,.21.13.28.23s0,.06,0,.07c.18.1.16-.19.22-.16l-.14,0a1,1,0,0,1,.31-.32.45.45,0,0,0,.16-.41l-.09-.07c0-.28.19,0,.27-.22v0c0-.11,0-.19,0-.21s.25.11.31.26c0-.3-.06-.19-.29-.58l.16.11c-.09-.15-.16-.21-.13-.31.07.17.25.15.35.36.44.14-.11-.5.4-.15-.32-.43-.33-.08-.38-.19s-.24-.32-.15-.33.56.38.66.26,0,0,0,0-.06-.2.14-.11c-.2-.24.08,0-.21-.34l0,.17c0-.13-.32-.51-.06-.45a1.34,1.34,0,0,1,.13.23c.11,0,0-.11.11-.06.29.28-.05.19.12.46.15.09-.11-.32.19,0-.37-.42.15-.06-.09-.43l.17.17s-.08-.14,0-.16l.19.25c-.14-.24.28.05.23-.1-.11.12-.24-.18-.42-.25-.1-.37.54.35.61.11,0,0-.18,0-.23-.13a.73.73,0,0,1,.28.1c.06-.14-.2-.16-.26-.31.25.17,0-.13-.06-.25l.18.18c.22,0-.34-.4-.1-.37l.2.28v-.11l.19.21c-.09-.2,0-.18.08-.18-.13-.11-.3-.33-.25-.39s.14.19.19.1c.09.13.2.28,0,.15l.15.19c.15.09.11-.06.14-.09a.06.06,0,0,1-.07,0l-.12-.36a.62.62,0,0,1,.15.19s-.06-.14,0-.18a1.51,1.51,0,0,1,.28.42L88,71c.07.06.21.13.25.2s-.12-.4,0-.34a.19.19,0,0,1,0-.1c.1,0,.3.13.22-.16l.26.26c0-.12-.33-.32-.3-.52s.21.23.29.3c-.07-.17-.19-.53,0-.32C88.83,70.43,88.78,70.4,88.78,70.43Zm.84-.63c0,.06,0,.22-.05.1C89.48,69.63,89.55,69.74,89.62,69.8Zm1.43-1.16c0,.08,0,0-.09,0S91,68.59,91.05,68.64Zm4.34-3.12h0C95.31,65.46,95.34,65.49,95.39,65.52Zm.13.06a.38.38,0,0,0,0-.1c0,.06,0,.08,0,.07S95.51,65.64,95.52,65.58ZM84.86,71l.06,0C84.94,71.1,84.9,71.05,84.86,71Z" transform="translate(-2.03 -1.44)"/><path class="cls-2" d="M91,69a.61.61,0,0,1,0-.12A.16.16,0,0,0,91,69Z" transform="translate(-2.03 -1.44)"/><polygon class="cls-2" points="86.32 69.46 86.32 69.46 86.34 69.5 86.32 69.46"/><path class="cls-2" d="M94.62,68.11a.28.28,0,0,1-.08-.11A.12.12,0,0,0,94.62,68.11Z" transform="translate(-2.03 -1.44)"/><path class="cls-2" d="M95.84,65l0,.08s0,0,.08.06S95.82,65,95.84,65Z" transform="translate(-2.03 -1.44)"/><path class="cls-2" d="M97,66.12s0,0,0,0L97,66S97,66.1,97,66.12Z" transform="translate(-2.03 -1.44)"/><path class="cls-2" d="M96.23,65.71c.09.19.1.11.13.06h0C96.24,65.5,96.24,65.61,96.23,65.71Z" transform="translate(-2.03 -1.44)"/><path class="cls-2" d="M96.36,65.76s0,0,0,0S96.38,65.72,96.36,65.76Z" transform="translate(-2.03 -1.44)"/><path class="cls-2" d="M95.59,65.41s-.09-.25,0-.18C95.47,65,95.53,65.58,95.59,65.41Z" transform="translate(-2.03 -1.44)"/><polygon class="cls-2" points="94.53 64.88 94.4 64.66 94.46 64.86 94.53 64.88"/><path class="cls-2" d="M96.13,66.31l.09,0s0-.07,0-.09S96.09,66.24,96.13,66.31Z" transform="translate(-2.03 -1.44)"/><path class="cls-2" d="M96.21,66.25s0,0,0-.06S96.21,66.21,96.21,66.25Z" transform="translate(-2.03 -1.44)"/><polygon class="cls-2" points="94.46 65 94.42 64.96 94.36 64.96 94.46 65"/><path class="cls-2" d="M95.33,66.56l0,.1c0,.09.06.13.08.08A.31.31,0,0,0,95.33,66.56Z" transform="translate(-2.03 -1.44)"/><path class="cls-2" d="M95.82,67.13a.63.63,0,0,1-.1-.17l.1.3Z" transform="translate(-2.03 -1.44)"/><path class="cls-2" d="M95.61,67.29c0,.09,0,.28.06.23S95.71,67.33,95.61,67.29Z" transform="translate(-2.03 -1.44)"/><polygon class="cls-2" points="92.21 65.88 92.23 65.86 92.08 65.36 92.21 65.88"/><path class="cls-2" d="M93.48,68.83c.13.09-.07-.32.06-.19,0-.13-.1-.1-.11-.21C93.41,68.57,93.36,68.51,93.48,68.83Z" transform="translate(-2.03 -1.44)"/><path class="cls-2" d="M93.43,68.43a.22.22,0,0,0,0-.09A.34.34,0,0,0,93.43,68.43Z" transform="translate(-2.03 -1.44)"/><polygon class="cls-2" points="80.48 73.4 80.37 73.47 80.55 73.42 80.48 73.4"/><path class="cls-2" d="M82.89,75h-.33l.3,0S82.82,75,82.89,75Z" transform="translate(-2.03 -1.44)"/><path class="cls-2" d="M90.07,70.33l0-.07c0-.08-.06-.08-.09-.08Z" transform="translate(-2.03 -1.44)"/><polygon class="cls-2" points="87.23 69.01 87.24 69.01 87.08 68.76 87.23 69.01"/><path class="cls-2" d="M89,71.06S89,71,89,71,88.77,70.75,89,71.06Z" transform="translate(-2.03 -1.44)"/></svg>